<?xml version="1.0" standalone="no"?>
<!DOCTYPE svg PUBLIC "-//W3C//DTD SVG 1.1//EN" "http://www.w3.org/Graphics/SVG/1.1/DTD/svg11.dtd" >
<svg>
<metadata>
Created by FontForge 20090914 at Fri Oct  1 21:33:52 2021
 By www-data
2015 Iconian Fonts - www.iconian.com
</metadata>
<defs>
<font id="CyberdyneSuper-Italic" horiz-adv-x="983" >
  <font-face 
    font-family="Cyberdyne Super-Italic"
    font-weight="400"
    font-style="italic"
    font-stretch="normal"
    units-per-em="1000"
    panose-1="0 0 0 0 0 0 0 0 0 0"
    ascent="800"
    descent="-200"
    x-height="570"
    cap-height="570"
    bbox="4 -172 1736 778"
    underline-thickness="50"
    underline-position="-75"
    unicode-range="U+0020-U+2122"
  />
<missing-glyph horiz-adv-x="500" 
 />
    <glyph glyph-name=".notdef" horiz-adv-x="500" 
 />
    <glyph glyph-name="space" unicode=" " horiz-adv-x="407" 
 />
    <glyph glyph-name="space" unicode="&#xa0;" horiz-adv-x="407" 
 />
    <glyph glyph-name="FL0021h" unicode="!" horiz-adv-x="292" 
d="M133 210h196l145 360h-196zM244 0l60 149h-196l-60 -149h196z" />
    <glyph glyph-name="FL0022h" unicode="&#x22;" horiz-adv-x="533" 
d="M430 346h36c50 0 92.333 8.5 127 25.5s59.667 44.5 75 82.5l47 116h-195zM188 346h36c50 0 92.333 8.5 127 25.5s59.667 44.5 75 82.5l47 116h-195z" />
    <glyph glyph-name="FL0023h" unicode="#" horiz-adv-x="961" 
d="M240 476l-60 -150h514l-33 -80h-514l-60 -150h155l-39 -96h195l39 96h164l-39 -96h195l39 96h156l60 150h-156l33 80h156l60 150h-156l38 94h-195l-38 -94h-164l38 94h-195l-38 -94h-155z" />
    <glyph glyph-name="FL0024h" unicode="$" horiz-adv-x="935" 
d="M325 -109l195.998 -0.000976562l44 109h217c12 0 25.333 2.83301 40 8.5s28.834 12.834 42.501 21.501s25.834 18.167 36.501 28.5s18 20.166 22 29.499l109 272h-322l25 60h322l60 150h-322l43 106h-196l-43 -106h-215c-11.333 0 -24.333 -2.83301 -39 -8.5
s-29 -13 -43 -22s-26.5 -18.667 -37.5 -29s-18.5 -20.166 -22.5 -29.499l-109 -271h321l-24 -60h-321l-61 -150h321zM776.998 209.999l-24 -60h-127l24 60h127zM538.998 419.999l-25 -60h-126l25 60h126z" />
    <glyph glyph-name="FL0025h" unicode="%" horiz-adv-x="1204" 
d="M1132 570h-215l-618 -570h216zM1072 176l-27 -68h-114l27 68h114zM732 0h424l115 285h-424zM503 461l-27 -68h-114l27 68h114zM163 285h424l115 285h-424z" />
    <glyph glyph-name="FL0026h" unicode="&#x26;" horiz-adv-x="943" 
d="M389 359l24.999 62.001h541l60 149h-607c-15.333 0 -31.833 -3 -49.5 -9s-35 -14.5 -52 -25.5s-32.5 -24 -46.5 -39s-24.667 -31.833 -32 -50.5l-42 -104c-0.666992 -2 -1.16699 -5.5 -1.5 -10.5s-0.166016 -10.5 0.500977 -16.5s1.5 -12.167 2.5 -18.5
s2.5 -11.833 4.5 -16.5c-4 -2.66699 -9.33301 -7.33398 -16 -14.001s-13 -13.667 -19 -21s-11.167 -14 -15.5 -20s-6.83301 -9.66699 -7.5 -11l-86 -214h788l85 211h59l60 148h-651zM724.999 210.001l-25 -61h-396l25 61h396z" />
    <glyph glyph-name="FL0027h" unicode="'" horiz-adv-x="291" 
d="M188 346h36c50 0 92.333 8.5 127 25.5s59.667 44.5 75 82.5l47 116h-195z" />
    <glyph glyph-name="FL0028h" unicode="(" horiz-adv-x="491" 
d="M466 58l-60 -149h-235c-50 0 -84.667 11.167 -104 33.5s-21.333 52.5 -6 90.5l207 511c13.333 34 35.5 61.667 66.5 83s72.5 32 124.5 32h250l-60 -149h-199l-183 -452h199z" />
    <glyph glyph-name="FL0029h" unicode=")" horiz-adv-x="491" 
d="M71 58l-59.998 -149h235c50 0 93.667 11.167 131 33.5s63.666 52.5 78.999 90.5l207 511c6.66699 16.667 10.167 32.167 10.5 46.5s-3.33398 26.5 -11.001 36.5s-19.5 17.833 -35.5 23.5s-37 8.5 -63 8.5h-250l-60 -149h199l-183 -452h-199z" />
    <glyph glyph-name="FL002Ah" unicode="*" horiz-adv-x="311" 
d="M353 609l-19 -51l-66 12l-32 -81l42 -11l-63 -41l46 -55l64 40l33 -40l89 55l-29 41l53 11l32 81l-78 -12l23 51h-95z" />
    <glyph glyph-name="FL002Bh" unicode="+" horiz-adv-x="618" 
d="M587 503h-150l-57 -142h-186l-61 -150h186l-57 -142h150l57 142h186l61 150h-186z" />
    <glyph glyph-name="FL002Eh" unicode="," horiz-adv-x="291" 
d="M18 -75h36c50 0 92.333 8.5 127 25.5s59.667 44.5 75 82.5l47 116h-195z" />
    <glyph glyph-name="FL002Dh" unicode="-" horiz-adv-x="534" 
d="M194 361l-61 -150h438l61 150h-438z" />
    <glyph glyph-name="FL004Ch" unicode="." horiz-adv-x="291" 
d="M243 0l60 149h-195l-60 -149h195z" />
    <glyph glyph-name="FL002Fh" unicode="/" horiz-adv-x="659" 
d="M861 570h-219l-614 -570h220z" />
    <glyph glyph-name="o" unicode="0" horiz-adv-x="942" 
d="M868 421l-109 -271h-455l109 271h455zM48 0h846l230 570h-846z" />
    <glyph glyph-name="FL0031h" unicode="1" horiz-adv-x="363" 
d="M289 421l-170 -421h196l230 570h-267l-60 -149h71z" />
    <glyph glyph-name="FL0032h" unicode="2" horiz-adv-x="933" 
d="M328 210h642l109 271c4 9.33301 4.66699 19.166 2 29.499s-7.5 20 -14.5 29s-15.667 16.333 -26 22s-20.833 8.5 -31.5 8.5h-731l-60 -150h642l-25 -60h-527c-34.667 0 -66 -8.66699 -94 -26s-50.667 -47.666 -68 -90.999l-98 -243h837l61 150h-642z" />
    <glyph glyph-name="FL0033h" unicode="3" horiz-adv-x="854" 
d="M193 360l-59.999 -149.001h562l-25 -62h-562l-60 -149h628c15.333 0 31.833 3 49.5 9s35 14.5 52 25.5s32.5 24 46.5 39s24.667 31.833 32 50.5l42 104c0.666992 2 1.16699 5.5 1.5 10.5s0.166016 10.5 -0.500977 16.5s-1.5 12.167 -2.5 18.5s-2.5 11.833 -4.5 16.5
c4.66699 2.66699 10.167 7.33398 16.5 14.001s12.5 13.667 18.5 21s11.167 14 15.5 20s6.83301 9.66699 7.5 11l86 214h-758l-60 -149h562l-25 -61h-562z" />
    <glyph glyph-name="FL0034h" unicode="4" horiz-adv-x="880" 
d="M867 570h195l-230 -570h-195l85 211h-589l145 359h195l-84 -209h394z" />
    <glyph glyph-name="FL0035h" unicode="5" horiz-adv-x="933" 
d="M775 210h-641.998l145 360h837l-60 -150h-642l-25 -60h642l-109 -272c-4 -9.33301 -11.333 -19.166 -22 -29.499s-22.834 -19.833 -36.501 -28.5s-27.834 -15.834 -42.501 -21.501s-28 -8.5 -40 -8.5h-732l61 150h642z" />
    <glyph glyph-name="FL0036h" unicode="6" horiz-adv-x="942" 
d="M1040 361h-650l24 60h650l60 149h-702c-52 0 -93.333 -10.667 -124 -32s-52.667 -49 -66 -83l-184 -455h846zM784 211l-25 -62h-455l25 62h455z" />
    <glyph glyph-name="FL0037h" unicode="7" horiz-adv-x="834" 
d="M418 0l538 422l60 148h-738l-60 -150h500l-522 -420h222z" />
    <glyph glyph-name="FL0038h" unicode="8" horiz-adv-x="944" 
d="M766 0c15.333 0 31.833 3 49.5 9s35 14.5 52 25.5s32.5 24 46.5 39s24.667 31.833 32 50.5l42 104c0.666992 2 1.16699 5.5 1.5 10.5s0.166016 10.5 -0.500977 16.5s-1.5 12.167 -2.5 18.5s-2.5 11.833 -4.5 16.5c4.66699 2.66699 10.167 7.33398 16.5 14.001
s12.5 13.667 18.5 21s11.167 14 15.5 20s6.83301 9.66699 7.5 11l86 214h-848l-86 -214c-0.666992 -1.33301 -1.16699 -5 -1.5 -11s-0.5 -12.667 -0.5 -20s0.5 -14.333 1.5 -21s2.5 -11.334 4.5 -14.001c-6 -4.66699 -12.167 -10.167 -18.5 -16.5
s-12.166 -12.5 -17.499 -18.5s-9.83301 -11.5 -13.5 -16.5s-5.83398 -8.5 -6.50098 -10.5l-42 -104c-7.33301 -18.667 -10.166 -35.5 -8.49902 -50.5s6.5 -28 14.5 -39s18.5 -19.5 31.5 -25.5s27.167 -9 42.5 -9h588zM785 211l-25 -62h-456l25 62h456zM845 360h-456l25 61
h456z" />
    <glyph glyph-name="FL0039h" unicode="9" horiz-adv-x="943" 
d="M132 209h651l-24 -60h-651l-60 -149h703c52 0 93.333 10.667 124 32s52.667 49 66 83l184 455h-847zM388 359l25 62h456l-25 -62h-456z" />
    <glyph glyph-name="FL003Ah" unicode=":" horiz-adv-x="291" 
d="M243 0l60 149h-195l-60 -149h195zM353 272l60 149h-195l-60 -149h195z" />
    <glyph glyph-name="FL003Bh" unicode=";" horiz-adv-x="291" 
d="M353 272l60 149h-195l-60 -149h195zM18 -75h36c50 0 92.333 8.5 127 25.5s59.667 44.5 75 82.5l47 116h-195z" />
    <glyph glyph-name="FL003Ch" unicode="&#x3c;" horiz-adv-x="654" 
d="M589 570h267l-445 -285l215 -285h-267l-216 285z" />
    <glyph glyph-name="FL003Dh" unicode="=" horiz-adv-x="618" 
d="M238 471l-60 -150h522l60 150h-522zM149 251l-60 -150h522l60 150h-522z" />
    <glyph glyph-name="FL003Eh" unicode="&#x3e;" horiz-adv-x="653" 
d="M258 570h267l215 -285l-445 -285h-267l444 285z" />
    <glyph glyph-name="FL003Fh" unicode="?" horiz-adv-x="864" 
d="M207 210l693.999 0.00195312l109 271c4 9.33301 4.66699 19.166 2 29.499s-7.5 20 -14.5 29s-15.667 16.333 -26 22s-20.833 8.5 -31.5 8.5h-662l-60 -150h573l-25 -60h-383c-16 0 -31.667 -1.66699 -47 -5s-29.833 -9 -43.5 -17s-26.167 -18.333 -37.5 -31
s-20.666 -28.334 -27.999 -47.001zM317.999 0.00195312l60 149h-195l-60 -149h195z" />
    <glyph glyph-name="FL0040h" unicode="@" horiz-adv-x="1123" 
d="M385 142h747l209 517h-1027l-253 -626c-15.333 -38 -13.333 -68.167 6 -90.5s54 -33.5 104 -33.5h843l60 149h-807l183 452h635l-88 -219h-83l55 137h-468zM770 319l-28 -69h-158l28 69h158z" />
    <glyph glyph-name="FL0041h" unicode="A" 
d="M482 570l48 -104l-95 -91h201l19 -76h-305l-322 -299h219l167 150h278l43 -150h220l-153 570h-320z" />
    <glyph glyph-name="FL0049h" unicode="B" horiz-adv-x="1050" 
d="M158 0l714.001 -0.000976562c15.333 0 31.833 3 49.5 9s35 14.5 52 25.5s32.5 24 46.5 39s24.667 31.833 32 50.5l42 104c0.666992 2 1.16699 5.5 1.5 10.5s0.166016 10.5 -0.500977 16.5s-1.5 12.167 -2.5 18.5s-2.5 11.833 -4.5 16.5
c4.66699 2.66699 10.167 7.33398 16.5 14.001s12.5 13.667 18.5 21s11.167 14 15.5 20s6.83301 9.66699 7.5 11l86 214h-974l70 -149h648l-25 -61h-648zM438.001 210.999h453l-25 -62h-453z" />
    <glyph glyph-name="FL0043h" unicode="C" horiz-adv-x="861" 
d="M873 149l-60 -149h-605c-50 0 -84.667 11.167 -104 33.5s-21.333 52.5 -6 90.5l180 446h765l-60 -149h-569l-110 -272h569z" />
    <glyph glyph-name="FL0045h" unicode="D" horiz-adv-x="1052" 
d="M158 0l686 0.00195312c24.667 0 48.667 4 72 12s44.5 18.667 63.5 32s35.5 28.166 49.5 44.499s24.333 33.166 31 50.499l174 431h-976l70 -149h649l-109 -271h-454l76 190h-195z" />
    <glyph glyph-name="FL0046h" unicode="E" horiz-adv-x="958" 
d="M1140 570h-882l70 -149h752zM219 151l-61 -151h751l61 151h-751zM304 361l-61 -150h561l61 150h-561z" />
    <glyph glyph-name="FL0048h" unicode="F" horiz-adv-x="956" 
d="M864 361h-560l-146 -361h195l85 211h365zM258 570l70 -149h751l60 149h-881z" />
    <glyph glyph-name="FL00C4h" unicode="G" horiz-adv-x="942" 
d="M1031 338h-195l-76 -188h-454l109 271h649l60 149h-702c-52 0 -93.333 -10.667 -124 -32s-52.667 -49 -66 -83l-184 -455h846z" />
    <glyph glyph-name="FL004Ah" unicode="H" horiz-adv-x="1001" 
d="M904 361h-405l84 209h-325l70 -149l-170 -421h195l85 211h405l-85 -211h195l230 570h-195z" />
    <glyph glyph-name="FL004Bh" unicode="I" horiz-adv-x="401" 
d="M258 570l70 -149l-170 -421h195l230 570h-325z" />
    <glyph glyph-name="FL053Bh" unicode="J" horiz-adv-x="781" 
d="M963 570h-522l70 -149h195l-109 -271h-488l-61 -150h524c50 0 93.833 11.167 131.5 33.5s64.167 52.5 79.5 90.5z" />
    <glyph glyph-name="FL08C2h" unicode="K" horiz-adv-x="994" 
d="M583 570h-325l70 -149l-170 -421h195l85 211h100l160 -211h268l-215 285l445 285h-268l-326 -209h-103z" />
    <glyph glyph-name="FL004Dh" unicode="L" horiz-adv-x="889" 
d="M841 0l60 149h-488l170 421h-325l70 -149l-170 -421h683z" />
    <glyph glyph-name="FL004Eh" unicode="M" horiz-adv-x="1104" 
d="M258 570l69 -147l-171 -423h195l119 295l166 -221l343 221l-119 -295h196l230 570h-154l-400 -257l-192 257h-282z" />
    <glyph glyph-name="FL0051h" unicode="N" horiz-adv-x="986" 
d="M258 570l70 -149l-170 -421h195l124 307l314 -307h147l230 570h-197l-125 -310l-309 310h-279z" />
    <glyph glyph-name="FL0030h" unicode="O" horiz-adv-x="943" 
d="M980 570h-556.998c-52 0 -93.5 -10.667 -124.5 -32s-53.167 -49 -66.5 -83l-14 -34h651l-110 -272h-455l77 191h-196l-87 -216c-15.333 -38 -13.333 -68.167 6 -90.5s54 -33.5 104 -33.5h527c50 0 93.667 11.167 131 33.5s63.666 52.5 78.999 90.5l134 331
c6.66699 16.667 10.167 32.167 10.5 46.5s-3.33398 26.5 -11.001 36.5s-19.5 17.833 -35.5 23.5s-37 8.5 -63 8.5z" />
    <glyph glyph-name="FL0050h" unicode="P" horiz-adv-x="1001" 
d="M293 335l-135.001 -335h195l75 186h473c14.667 0 30.834 3 48.501 9s34.667 14.5 51 25.5s31.5 24 45.5 39s24.667 31.833 32 50.5l59 145c6.66699 16.667 10.667 32 12 46s-1 26.167 -7 36.5s-16.333 18.333 -31 24s-34.667 8.5 -60 8.5h-793l70 -149h599l-35 -86h-599z
" />
    <glyph glyph-name="FL005Dh" unicode="Q" horiz-adv-x="980" 
d="M194 0h738.998l60 149h-688l110 271h389l-77 -190h196l87 216c15.333 38 13.333 68.167 -6 90.5s-54 33.5 -104 33.5h-461c-50 0 -93.667 -11.167 -131 -33.5s-63.666 -52.5 -78.999 -90.5l-134 -331c-6.66699 -17.333 -10.167 -33 -10.5 -47s3.33398 -26 11.001 -36
s19.5 -17.833 35.5 -23.5s37 -8.5 63 -8.5z" />
    <glyph glyph-name="FL0055h" unicode="R" horiz-adv-x="992" 
d="M1044 570l-785.999 -0.000976562l70 -149h594l-35 -86h-594l-135 -335h195l75 186h189l117 -186h242l-114 190c50.667 0.666992 94.667 11.334 132 32.001s63.666 50 78.999 88l59 145c13.333 34 14 61.667 2 83s-42 32 -90 32z" />
    <glyph glyph-name="FL007Dh" unicode="S" horiz-adv-x="915" 
d="M268 210c-17.333 0 -33.166 2.00098 -47.499 6.00098s-26 10.667 -35 20s-14.333 21.5 -16 36.5s2.16602 33.5 11.499 55.5l61 153c4 9.33301 11.5 19.166 22.5 29.499s23.5 20 37.5 29s28.333 16.333 43 22s27.667 8.5 39 8.5h707l-60 -150h-618l-25 -60h482
c17.333 0 33.333 -2 48 -6s26.5 -10.667 35.5 -20s14.333 -21.333 16 -36s-1.83301 -33 -10.5 -55l-62 -155c-4 -9.33301 -11.333 -19.166 -22 -29.499s-23 -19.833 -37 -28.5s-28.333 -15.834 -43 -21.501s-28 -8.5 -40 -8.5h-707l61 150h618l24 60h-483z" />
    <glyph glyph-name="T" unicode="T" horiz-adv-x="996" 
d="M610 421l-170 -421h196l170 421h312l60 149h-920l70 -149h282z" />
    <glyph glyph-name="FL0078h" unicode="U" horiz-adv-x="932" 
d="M278 570l-230 -570h836l230 570h-196l-169 -420h-445l169 420h-195z" />
    <glyph glyph-name="FL0057h" unicode="V" 
d="M258 570h219l94 -373l394 373h220l-613 -570h-162z" />
    <glyph glyph-name="FL0058h" unicode="W" horiz-adv-x="1344" 
d="M619 570h219l94 -371l394 371h220l-614 -570h-160l-41 149l-160 -149h-160l-153 570h219l94 -371l117 109z" />
    <glyph glyph-name="FL0059h" unicode="X" 
d="M258 570h267l128 -169l265 169h267l-445 -285l215 -285h-267l-129 169l-264 -169h-267l444 285z" />
    <glyph glyph-name="FL0065h" unicode="Y" 
d="M589 0l102 253l494 317h-267l-265 -169l-128 169h-267l238 -317l-102 -253h195z" />
    <glyph glyph-name="FL005Bh" unicode="Z" horiz-adv-x="976" 
d="M1158 570h-900l70 -150h463l-573 -271l-60 -149h770l61 150h-464l573 272z" />
    <glyph glyph-name="FL0044h" unicode="[" horiz-adv-x="945" 
d="M185 340h194.998l-76 -190h457l109 271h-652l60 149h705c26 0 46.833 -2.83301 62.5 -8.5s27.334 -13.5 35.001 -23.5s11.334 -22.167 11.001 -36.5s-3.83301 -29.833 -10.5 -46.5l-134 -331c-15.333 -38 -41.5 -68.167 -78.5 -90.5s-80.5 -33.5 -130.5 -33.5h-690z" />
    <glyph glyph-name="FL005Ch" unicode="\" horiz-adv-x="659" 
d="M258 570h219l154 -570h-220z" />
    <glyph glyph-name="FL0073h" unicode="]" horiz-adv-x="915" 
d="M133 210l145 360h813l-60 -150h-618l-25 -60h618l-145 -360h-813l61 150h618l24 60h-618z" />
    <glyph glyph-name="FL005Eh" unicode="^" 
d="M955 0h-219l-45 150h-278l-165 -150h-220l613 570h162l49 -195h-201l-81 -76h305z" />
    <glyph glyph-name="FL005Fh" unicode="_" horiz-adv-x="703" 
d="M88 99l-51 -127h607l51 127h-607z" />
    <glyph glyph-name="FL0060h" unicode="`" horiz-adv-x="318" 
d="M318 717l31 -147h171l-8 147h-194z" />
    <glyph glyph-name="a" unicode="a" 
d="M28 0h219l167 150h278l43 -150h220l-153 570h-162l-205 -195h201l19 -76h-305z" />
    <glyph glyph-name="FL0062h" unicode="b" horiz-adv-x="939" 
d="M193 360l646.999 0.000976562l25 61h-647l60 149h843l-86 -214c-0.666992 -1.33301 -3.16699 -5 -7.5 -11s-9.5 -12.667 -15.5 -20s-12.167 -14.333 -18.5 -21s-11.833 -11.334 -16.5 -14.001c2 -4.66699 3.5 -10.167 4.5 -16.5s1.83301 -12.5 2.5 -18.5
s0.833984 -11.5 0.500977 -16.5s-0.833008 -8.5 -1.5 -10.5l-42 -104c-7.33301 -18.667 -18 -35.5 -32 -50.5s-29.5 -28 -46.5 -39s-34.333 -19.5 -52 -25.5s-34.167 -9 -49.5 -9h-713zM302.999 149.001h452l25 62h-452z" />
    <glyph glyph-name="FL0063h" unicode="c" horiz-adv-x="861" 
d="M873 149l-60 -149h-606c-50 0 -84.5 11.167 -103.5 33.5s-20.833 52.5 -5.5 90.5l134 331c13.333 34 35.333 61.667 66 83s72 32 124 32h621l-60 -149h-569l-110 -272h569z" />
    <glyph glyph-name="FL0064h" unicode="d" horiz-adv-x="942" 
d="M185 340h194.997l-76 -190h454l109 271h-649l60 149h846l-180 -446c-7.33301 -18 -17.666 -34.5 -30.999 -49.5s-29.166 -28 -47.499 -39s-38.666 -19.667 -60.999 -26s-45.833 -9.5 -70.5 -9.5h-686z" />
    <glyph glyph-name="e" unicode="e" horiz-adv-x="848" 
d="M110 151l-61 -151h750l61 151h-750zM195 361l-61 -150h560l61 150h-560zM279 570l-60 -149h751l60 149h-751z" />
    <glyph glyph-name="FL0066h" unicode="f" horiz-adv-x="846" 
d="M753 361h-559l-146 -361h195l85 211h364zM278 570l-60 -149h750l60 149h-750z" />
    <glyph glyph-name="FL0067h" unicode="g" horiz-adv-x="941" 
d="M953 149l-60 -149h-845l184 455c13.333 34 35.333 61.667 66 83s72 32 124 32h701l-60 -149h-649l-110 -272h649zM1039 361l-61 -150h-293l61 150h293z" />
    <glyph glyph-name="FL0068h" unicode="h" horiz-adv-x="889" 
d="M876 570h195l-230 -570h-195l85 211h-403l-85 -211h-195l230 570h195l-84 -209h403z" />
    <glyph glyph-name="i" unicode="i" horiz-adv-x="291" 
d="M278 570l-230 -570h195l230 570h-195z" />
    <glyph glyph-name="FL006Ah" unicode="j" horiz-adv-x="781" 
d="M48 0l61 150h488l109 271h-190l60 149h387l-180 -446c-15.333 -38 -41.833 -68.167 -79.5 -90.5s-81.5 -33.5 -131.5 -33.5h-524z" />
    <glyph glyph-name="FL006Bh" unicode="k" horiz-adv-x="884" 
d="M48 0l230 570h195l-84 -209h103l326 209h268l-445 -285l215 -285h-268l-160 211h-100l-85 -211h-195z" />
    <glyph glyph-name="FL006Ch" unicode="l" horiz-adv-x="779" 
d="M48 0l230 570h195l-170 -421h488l-60 -149h-683z" />
    <glyph glyph-name="FL006Dh" unicode="m" horiz-adv-x="996" 
d="M278 570l-230 -570h195l119 295l166 -221l343 221l-119 -295h196l230 570h-154l-400 -257l-192 257h-154z" />
    <glyph glyph-name="FL006Eh" unicode="n" horiz-adv-x="876" 
d="M278 570l-230 -570h195l124 307l314 -307h147l230 570h-197l-125 -310l-309 310h-149z" />
    <glyph glyph-name="FL004Fh" unicode="o" horiz-adv-x="942" 
d="M185 340l-137 -340h846l230 570h-846l-60 -149h650l-109 -271h-455l76 190h-195z" />
    <glyph glyph-name="FL0070h" unicode="p" horiz-adv-x="888" 
d="M183 335l-135.001 -335h195l75 186h470c14.667 0 30.834 3 48.501 9s34.667 14.5 51 25.5s31.5 24 45.5 39s24.667 31.833 32 50.5l59 145c6.66699 16.667 10.667 32 12 46s-1 26.167 -7 36.5s-16.333 18.333 -31 24s-34.667 8.5 -60 8.5h-660l-60 -149h596l-35 -86h-596
z" />
    <glyph glyph-name="FL0071h" unicode="q" horiz-adv-x="980" 
d="M923 230l137 340h-782l-230 -570h885l60 149h-689l110 271h391l-77 -190h195z" />
    <glyph glyph-name="FL0072h" unicode="r" horiz-adv-x="884" 
d="M183 335l-134.999 -335.001h195l75 186h191l116 -186h242l-113 190c50.667 0.666992 94.667 11.334 132 32.001s63.666 50 78.999 88l59 145c13.333 34 14 61.667 2 83s-42 32 -90 32h-658l-60 -149h596l-35 -86h-596z" />
    <glyph glyph-name="FL0077h" unicode="s" horiz-adv-x="915" 
d="M751 210l-617.998 0.000976562l109 271c4 9.33301 11.5 19.166 22.5 29.499s23.5 20 37.5 29s28.333 16.333 43 22s27.667 8.5 39 8.5h707l-60 -150h-618l-25 -60h618l-109 -272c-4 -9.33301 -11.333 -19.166 -22 -29.499s-22.834 -19.833 -36.501 -28.5
s-27.834 -15.834 -42.501 -21.501s-28 -8.5 -40 -8.5h-708l61 150h618z" />
    <glyph glyph-name="FL0074h" unicode="t" horiz-adv-x="917" 
d="M531 421l-170 -421h196l170 421h312l60 149h-821l-60 -149h313z" />
    <glyph glyph-name="FL0056h" unicode="u" horiz-adv-x="932" 
d="M1114 570h-195l-169 -420h-444l169 420h-197l-179 -444c-14.667 -36 -13 -66 5 -90s52 -36 102 -36h678z" />
    <glyph glyph-name="FL0076h" unicode="v" 
d="M258 570h219l94 -371l394 371h220l-613 -570h-162z" />
    <glyph glyph-name="FL0079h" unicode="w" horiz-adv-x="1287" 
d="M615 570h200l78 -367l381 367h215l-599 -570h-148l-37 149l-156 -149h-153l-138 570h214l88 -367l107 105z" />
    <glyph glyph-name="FL007Ah" unicode="x" 
d="M258 570h267l128 -169l265 169h267l-445 -285l215 -285h-267l-129 169l-264 -169h-267l444 285z" />
    <glyph glyph-name="FL007Bh" unicode="y" horiz-adv-x="885" 
d="M872 570h194.999l-194 -482c-4 -9.33301 -11.333 -19.166 -22 -29.499s-23 -19.833 -37 -28.5s-28.333 -15.834 -43 -21.501s-28 -8.5 -40 -8.5h-683l61 150h594l24 60h-461c-17.333 0 -33.166 2 -47.499 6s-25.666 10.667 -33.999 20s-13.333 21.5 -15 36.5
s2.16602 33.5 11.499 55.5l97 242h195l-85 -210h399z" />
    <glyph glyph-name="FL007Ch" unicode="z" horiz-adv-x="866" 
d="M415 150l573 272l60 148h-770l-60 -150h463l-573 -271l-60 -149h770l61 150h-464z" />
    <glyph glyph-name="FL0061h" unicode="{" horiz-adv-x="860" 
d="M872 149l-60 -149h-764l230 570h764l-60 -149h-568l-110 -272h568z" />
    <glyph glyph-name="FL007Eh" unicode="|" horiz-adv-x="292" 
d="M4 -109l317 785h196l-317 -785h-196z" />
    <glyph glyph-name="FL002Ch" unicode="}" horiz-adv-x="944" 
d="M1033 340l-137 -340h-848l230 570h848l-60 -149h-652l-109 -271h457l76 190h195z" />
    <glyph glyph-name="FL00B9h" unicode="~" horiz-adv-x="942" 
d="M423 570c-52 0 -93.498 -10.667 -124.498 -32s-53.167 -49 -66.5 -83l-134 -331c-15.333 -38 -13.333 -68.167 6 -90.5s54 -33.5 104 -33.5h526c50 0 93.667 11.167 131 33.5s63.666 52.5 78.999 90.5l134 331c6.66699 16.667 10.167 32.167 10.5 46.5
s-3.33398 26.5 -11.001 36.5s-19.5 17.833 -35.5 23.5s-37 8.5 -63 8.5h-556zM758.002 149h-454l110 272h454z" />
    <glyph glyph-name="FL007Fh" horiz-adv-x="213" 
 />
    <glyph glyph-name="FL00A1h" unicode="&#xa1;" horiz-adv-x="292" 
d="M193 360h196l-145 -360h-196zM474 570l-60 -149h-196l60 149h196z" />
    <glyph glyph-name="FL00A2h" unicode="&#xa2;" horiz-adv-x="861" 
d="M356 -109h196l44 109h217l60 149h-217l110 272h217l60 149h-217l43 106h-196l-43 -106h-208c-52 0 -93.333 -10.667 -124 -32s-52.667 -49 -66 -83l-134 -331c-15.333 -38 -13.5 -68.167 5.5 -90.5s53.5 -33.5 103.5 -33.5h193zM304 149l110 272h156l-110 -272h-156z" />
    <glyph glyph-name="FL00A3h" unicode="&#xa3;" horiz-adv-x="909" 
d="M193 360l-60 -149h129l-25 -62h-129l-60 -149h813l60 149h-488l25 62h309l60 149h-309l25 61h141l60 149h-337l-85 -210h-129z" />
    <glyph glyph-name="FL00A4h" unicode="&#xa4;" 
d="M295 0l196 125h102l95 -125h267l-147 195l73 180l304 195h-267l-199 -127h-98l-96 127h-267l147 -195l-73 -180l-304 -195h267zM685 321l-31 -76h-128l31 76h128z" />
    <glyph glyph-name="FL00A5h" unicode="&#xa5;" 
d="M589 0l102 253l494 317h-267l-265 -169l-128 169h-267l238 -317l-102 -253h195z" />
    <glyph glyph-name="FL00A6h" unicode="&#xa6;" horiz-adv-x="292" 
d="M4 -109h196l144 357h-196zM373 319l144 357h-196l-144 -357h196z" />
    <glyph glyph-name="FL00A7h" unicode="&#xa7;" 
d="M28 0h267l195 125h290l101 250l304 195h-267l-198 -127h-288l-101 -249zM685 321l-31 -76h-128l31 76h128z" />
    <glyph glyph-name="FL00A8h" unicode="&#xa8;" horiz-adv-x="590" 
d="M471 570l60 147h-193l-60 -147h193zM772 570l60 147h-193l-60 -147h193z" />
    <glyph glyph-name="FL00A9h" unicode="&#xa9;" horiz-adv-x="293" 
d="M387 595c13.333 0 28.998 -3.66797 46.998 -11.001c18 -11.333 27 -23 27 -35c4.66699 -14 4 -28.667 -2 -44c-5.33301 -13.333 -16.666 -28.333 -33.999 -45c-7.33301 -7.33301 -14.333 -13 -21 -17s-14.667 -8 -24 -12c-0.666992 0 -1.33398 -0.333008 -2.00098 -1
l-6 -3c-18.667 -5.33301 -32.834 -8.66602 -42.501 -9.99902l-14.5 -2c-19.333 0 -36 4 -50 12c-7.33301 5.33301 -12.666 10.333 -15.999 15s-6.66602 10.667 -9.99902 18c-4 14 -3 29 3 45c14 34 43 60.333 87 79c0.666992 0 1.33398 0.166992 2.00098 0.5
s1.33398 0.5 2.00098 0.5c12 3.33301 21.667 5.83301 29 7.5s15.666 2.5 24.999 2.5zM381.998 580.999c-34.667 0 -66.332 -12.667 -94.999 -38c-12.667 -12.667 -21.667 -25.334 -27 -38.001c-5.33301 -13.333 -6.33301 -25.333 -3 -36
c1.33301 -10.667 8.66602 -20.334 21.999 -29.001c10 -4.66699 19.167 -7.5 27.5 -8.5s14.5 -1.5 18.5 -1.5c10.667 0 22 2.16699 34 6.5s23.5 10 34.5 17s20.667 15 29 24s14.5 18.167 18.5 27.5l2 4c3.33301 8.66699 4.33301 17.334 3 26.001
s-4.66602 16.334 -9.99902 23.001s-12.333 12.167 -21 16.5s-18.334 6.5 -29.001 6.5h-4zM379 490.999l15.998 -4c-16 -22.667 -37.667 -34 -65 -34c-38 0 -50 17.333 -36 52c14 34 40 51 78 51c26 0 38 -9.33301 36 -28l-17 -3c-1.33301 12 -9.66602 18 -24.999 18
c-25.333 0 -43 -12.667 -53 -38c-10 -24 -2.66699 -36 22 -36c18.667 0 33.334 7.33301 44.001 22z" />
    <glyph glyph-name="FL00AAh" unicode="&#xaa;" horiz-adv-x="942" 
d="M194 361h649.998l24 60h-650l60 149h702c26 0 46.833 -2.83301 62.5 -8.5s27.334 -13.5 35.001 -23.5s11.334 -22.167 11.001 -36.5s-3.83301 -29.833 -10.5 -46.5l-184 -455h-846zM327.998 211l-25 -62h455l25 62h-455z" />
    <glyph glyph-name="FL00ABh" unicode="&#xab;" horiz-adv-x="1045" 
d="M589 570h267l-445 -285l215 -285h-267l-216 285zM980 570h267l-445 -285l215 -285h-267l-216 285z" />
    <glyph glyph-name="FL00ACh" unicode="&#xac;" horiz-adv-x="510" 
d="M194 361l-61 -150h264l-57 -142h150l118 292h-414z" />
    <glyph glyph-name="FL00AEh" unicode="&#xad;" horiz-adv-x="430" 
d="M194 361l-61 -150h334l61 150h-334z" />
    <glyph glyph-name="FL00AFh" unicode="&#xae;" horiz-adv-x="293" 
d="M388 596c18.667 0 34 -4 46 -12c14.667 -7.33301 24 -18.5 28 -33.5s3 -29.833 -3 -44.5c-5.33301 -13.333 -16.666 -28.333 -33.999 -45c-11.333 -13.333 -29 -24.333 -53 -33c-17.333 -6 -31.166 -9.5 -41.499 -10.5l-15.5 -1.5c-20.667 0 -37.334 4 -50.001 12
c-10 7.33301 -18.667 18.333 -26 33c-4 12.667 -3 27.667 3 45c4 9.33301 8.16699 16.833 12.5 22.5s10.166 12.167 17.499 19.5l3 2c14.667 14.667 32.667 26 54 34c20 8 39.667 12 59 12zM382 581c-34.667 0 -65.668 -12.3301 -93.001 -36.9971
c-13.333 -12.667 -23 -25.334 -29 -38.001l-0.5 -10c-0.333008 -6.66699 -1.16602 -15.667 -2.49902 -27c2 -8.66699 9.33301 -18 22 -28c10.667 -4 19.667 -6.5 27 -7.5s12.333 -1.5 15 -1.5h1c7.33301 0 14.833 0.666992 22.5 2s16.167 3.66602 25.5 6.99902
c18 9.33301 32.333 18.666 43 27.999c9.33301 9.33301 16.333 17.833 21 25.5l7 11.5l1 4c7.33301 18 5.33301 34.333 -6 49s-28 22 -50 22h-4zM284.999 456.003l39.0029 96.999h38c17.333 0 27 -1.33301 29 -4c5.33301 -2.66699 8.66602 -5 9.99902 -7
c2.66699 -4.66699 3 -9.66699 1 -15c-7.33301 -17.333 -22.333 -26.333 -45 -27c5.33301 -2.66699 8.66602 -5.66699 9.99902 -9s3.66602 -8.66602 6.99902 -15.999l7 -19h-24l-2 16c-6 12.667 -10 19.667 -12 21c-2 2.66699 -6.33301 4 -13 4h-10l-17 -41h-18z
M325.002 510.002l21 0.000976562c11.333 0 19.5 1.33301 24.5 4s8.83301 6.66699 11.5 12c2 5.33301 0 9.66602 -6 12.999c-0.666992 0.666992 -7 1 -19 1h-20z" />
    <glyph glyph-name="FL00B1h" unicode="&#xaf;" horiz-adv-x="703" 
d="M291 602l-51 -127h607l51 127h-607z" />
    <glyph glyph-name="FL00B0h" unicode="&#xb0;" horiz-adv-x="289" 
d="M278 570l60 147h193l-60 -147h-193zM423 620l19 47h-59l-19 -47h59z" />
    <glyph glyph-name="FL00B2h" unicode="&#xb1;" horiz-adv-x="618" 
d="M587 503h-150l-57 -142h-186l-61 -150h522l61 150h-186zM109 150l-61 -150h522l61 150h-522z" />
    <glyph glyph-name="FL00B3h" unicode="&#xb2;" horiz-adv-x="915" 
d="M133 210l109 271.001c4 9.33301 11.5 19.166 22.5 29.499s23.5 20 37.5 29s28.333 16.333 43 22s27.667 8.5 39 8.5h707l-60 -150h-618l-25 -60h482c17.333 0 33.333 -2 48 -6s26.5 -10.667 35.5 -20s14.333 -21.333 16 -36s-1.83301 -33 -10.5 -55l-62 -155
c-4 -9.33301 -11.333 -19.166 -22 -29.499s-23 -19.833 -37 -28.5s-28.333 -15.834 -43 -21.501s-28 -8.5 -40 -8.5h-707l61 150h618l24 60h-618z" />
    <glyph glyph-name="FL0075h" unicode="&#xb3;" horiz-adv-x="1024" 
d="M296 210c-17.333 0 -33.166 2 -47.499 6s-26 10.667 -35 20s-14.333 21.5 -16 36.5s2.16602 33.5 11.499 55.5l97 242h850l-60 -150h-655l-25 -60h519c17.333 0 33.333 -2 48 -6s26.5 -10.667 35.5 -20s14.333 -21.333 16 -36s-1.83301 -33 -10.5 -55l-98 -243h-850
l61 150h655l24 60h-520z" />
    <glyph glyph-name="FL00B4h" unicode="&#xb4;" horiz-adv-x="318" 
d="M580 717l-151 -147h-171l128 147h194z" />
    <glyph glyph-name="FL00B5h" unicode="&#xb5;" horiz-adv-x="932" 
d="M4 -109l196.001 0.00195312l44 109h482c24.667 0 48.167 3.16699 70.5 9.5s42.5 15.166 60.5 26.499s33.667 24.666 47 39.999s23.666 32 30.999 50l179 444h-197l-169 -420h-443l169 420h-196z" />
    <glyph glyph-name="FL00B6h" unicode="&#xb6;" horiz-adv-x="888" 
d="M975 335h-596.002l35 86h596l60 149h-660c-50.667 0 -89.667 -10.833 -117 -32.5s-47.666 -49.167 -60.999 -82.5l-59 -145c-7.33301 -18.667 -10.333 -35.5 -9 -50.5s5.83301 -28 13.5 -39s17.834 -19.5 30.501 -25.5s26.667 -9 42 -9h71l-137 -340h196l137 340h203
l-137 -340h195z" />
    <glyph glyph-name="FL00B7h" unicode="&#xb7;" horiz-adv-x="291" 
d="M329 212l60 149h-195l-60 -149h195z" />
    <glyph glyph-name="FL0047h" unicode="&#xb8;" horiz-adv-x="946" 
d="M958 149l-60 -149h-691c-50 0 -84.5 11.167 -103.5 33.5s-20.833 52.5 -5.5 90.5l134 331c13.333 34 35.333 61.667 66 83s72 32 124 32h706l-60 -149h-654l-110 -272h654zM1044 361l-61 -150h-293l61 150h293z" />
    <glyph glyph-name="FL00BAh" unicode="&#xb9;" horiz-adv-x="292" 
d="M250 500h41l-71 -176h155l115 285h-196z" />
    <glyph glyph-name="FL00BDh" unicode="&#xba;" horiz-adv-x="520" 
d="M519 500l-27 -68h-114l27 68h114zM179 324h424l115 285h-424z" />
    <glyph glyph-name="FL00BBh" unicode="&#xbb;" horiz-adv-x="1045" 
d="M916 570h-267l215 -285l-445 -285h267l446 285zM525 570h-267l215 -285l-445 -285h267l446 285z" />
    <glyph glyph-name="FL0193h" unicode="&#xbc;" horiz-adv-x="1441" 
d="M1533 298c0 -0.666992 -0.332031 -1.33008 -0.999023 -1.99707l-1 -1l-30 -29h-84l35 -54c0.666992 -2 0.666992 -4.33301 0 -7l-2 -5c-6.66699 -16.667 -20.667 -27 -42 -31l-87 14l-42 -82c-10 -10 -23.667 -15 -41 -15c-14 0 -27.333 2.16699 -40 6.5
s-27.667 11.166 -45 20.499l-119 -75l-49 -8l-39 43l-199 -69l-28 6l17 43l-242 -29l-21 14l23 35l-231 15l10 25l37 23l-139 21c-18.667 0 -24.334 8.66699 -17.001 26l72 34l-87 36l3 35l106 14l-35 48l25 42l105 -9c26 65.333 53 98 81 98h5l92 -28
c32 23.333 59.167 41.666 81.5 54.999s42.833 22.666 61.5 27.999l65 -41l189 61l31 -20l-18 -21l6 -7l195 28l61 -7l-25 -41h218l14 -14c-10 -24 -27.667 -37 -53 -39l170 -37l-3 -8c-10 -24 -38 -37.333 -84 -40c73.333 -22 107 -39.333 101 -52zM1500 288.004l-2 14
l-128 54l101 21h11l-5 15l-198 34l92 40h-248l37 49l-248 -27l8 41l-16 7l-191 -62l-56 41l-131 -80c-16.667 -2 -25 -3.66699 -25 -5h1c-20.667 0 -47 10 -79 30l-56 -96l-115 6l-4 -28l38 -62l-118 -6l130 -62l-116 -35l206 -36l-90 -40h257l-52 -54l244 33l19 -27
l-22 -29l211 69l66 -40l125 83l107 -29l49 98l114 -16c2 4 3.33301 6.5 4 7.5l1 1.5c5.33301 12 -8 39.333 -40 82zM1340 336.004l-55 -89l-23 3l42 92zM1275 208.004l-36 -19l-12 15l26 11zM1207 215.004c-24.667 0 -49 20.333 -73 61l-25 -61l-26 -1l50 122l58 -78l42 84
l23 -5zM1057 215.004l-20.999 7c-0.666992 18.667 -9.33398 28 -26.001 28c-15.333 0 -32.333 -9.33301 -51 -28h-33c10.667 19.333 25.5 39 44.5 59s42.167 40.333 69.5 61c4 2 12 3 24 3c18.667 0 28 -13 28 -39zM955.002 342.004l-56 -119l-43 -9l66 125z
M825.002 211.004c-24.667 0 -49.667 19.667 -75 59l-23 -58l-27 -4l45 123l63 -78l39 86l27 -8zM713.002 297.004c-33.333 -57.333 -65.668 -86 -97.001 -86c-11.333 -2 -20.333 -3 -27 -3c-29.333 0 -45 7.33301 -47 22c20 50 55.333 85.667 106 107
c2.66699 0 4.33398 0.166992 5.00098 0.5l1 0.5h8c37.333 0 54.333 -13.667 51 -41zM577 341.004l-17 -30.001l-7.5 1.5l-2.5 0.5h1h-8c-14 0 -30.333 -5.33301 -49 -16c-22.667 -16 -37.667 -32.333 -45 -49c-6.66699 -16.667 2 -25 26 -25c6 0 11.333 0.166992 16 0.5
s9 0.833008 13 1.5h2l-6 -19c-8.66699 -1.33301 -15.5 -2.66602 -20.5 -3.99902s-9.5 -2 -13.5 -2c-32.667 0 -47.334 17.667 -44.001 53c0 0.666992 1 3.66699 3 9l3 7c14.667 38 64.334 62 149.001 72zM438 339.003l-58 -122l-39 -9l67 125zM1050 276.003l-3 40l-50 -40
h53zM677 278.003c2.66699 6 2.66602 11.001 -0.000976562 15.001c-2 10 -10.667 15 -26 15c-17.333 0 -37.666 -12.667 -60.999 -38l-3 -8c-8 -19.333 -3.33301 -29 14 -29c4 0 9.83301 0.666992 17.5 2s17.167 3.66602 28.5 6.99902c16 12.667 26 24.667 30 36z" />
    <glyph glyph-name="FL0D39h" unicode="&#xbd;" horiz-adv-x="1043" 
d="M1131 336l-55 -89l-23 3l42 92zM1066 208l-36 -19l-12 15l26 11zM998 215c-24.667 0 -49 20.333 -73 61l-25 -61l-26 -1l50 122l58 -78l42 84l23 -5zM848 215l-20.999 7c-0.666992 18.667 -9.33398 28 -26.001 28c-15.333 0 -32.333 -9.33301 -51 -28h-33
c10.667 19.333 25.5 39 44.5 59s42.167 40.333 69.5 61c4 2 12 3 24 3c18.667 0 28 -13 28 -39zM746.001 342l-56 -119l-43 -9l66 125zM616.001 211c-24.667 0 -49.667 19.667 -75 59l-23 -58l-27 -4l45 123l63 -78l39 86l27 -8zM504.001 297
c-33.333 -57.333 -65.668 -86 -97.001 -86c-11.333 -2 -20.333 -3 -27 -3c-29.333 0 -45 7.33301 -47 22c20 50 55.333 85.667 106 107c2.66699 0 4.33398 0.166992 5.00098 0.5l1 0.5h8c37.333 0 54.333 -13.667 51 -41zM367.999 341l-17 -30.001l-7.5 1.5l-2.5 0.5h1h-8
c-14 0 -30.333 -5.33301 -49 -16c-22.667 -16 -37.667 -32.333 -45 -49c-6.66699 -16.667 2 -25 26 -25c6 0 11.333 0.166992 16 0.5s9 0.833008 13 1.5h2l-6 -19c-8.66699 -1.33301 -15.5 -2.66602 -20.5 -3.99902s-9.5 -2 -13.5 -2c-32.667 0 -47.334 17.667 -44.001 53
c0 0.666992 1 3.66699 3 9l3 7c14.667 38 64.334 62 149.001 72zM228.999 338.999l-58 -122l-39 -9l67 125zM840.999 275.999l-3 40l-50 -40h53zM467.999 277.999c2.66699 6 2.66602 11.001 -0.000976562 15.001c-2 10 -10.667 15 -26 15
c-17.333 0 -37.666 -12.667 -60.999 -38l-3 -8c-8 -19.333 -3.33301 -29 14 -29c4 0 9.83301 0.666992 17.5 2s17.167 3.66602 28.5 6.99902c16 12.667 26 24.667 30 36z" />
    <glyph glyph-name="FL00BEh" unicode="&#xbe;" horiz-adv-x="1440" 
d="M1500 288l-2 14l-128 54l101 21h11l-5 15l-198 34l92 40h-248l37 49l-248 -27l8 41l-16 7l-191 -62l-56 41l-131 -80c-16.667 -2 -25 -3.66699 -25 -5h1c-20.667 0 -47 10 -79 30l-56 -96l-115 6l-4 -28l38 -62l-118 -6l130 -62l-116 -35l206 -36l-90 -40h257l-52 -54
l244 33l19 -27l-22 -29l211 69l66 -40l125 83l107 -29l49 98l114 -16c2 4 3.33301 6.5 4 7.5l1 1.5c5.33301 12 -8 39.333 -40 82zM1340 336l-55 -89l-23 3l42 92zM1275 208l-36 -19l-12 15l26 11zM1207 215c-24.667 0 -49 20.333 -73 61l-25 -61l-26 -1l50 122l58 -78
l42 84l23 -5zM1057 215l-20.999 7c-0.666992 18.667 -9.33398 28 -26.001 28c-15.333 0 -32.333 -9.33301 -51 -28h-33c10.667 19.333 25.5 39 44.5 59s42.167 40.333 69.5 61c4 2 12 3 24 3c18.667 0 28 -13 28 -39zM955.001 342l-56 -119l-43 -9l66 125zM825.001 211
c-24.667 0 -49.667 19.667 -75 59l-23 -58l-27 -4l45 123l63 -78l39 86l27 -8zM713.001 297c-33.333 -57.333 -65.668 -86 -97.001 -86c-11.333 -2 -20.333 -3 -27 -3c-29.333 0 -45 7.33301 -47 22c20 50 55.333 85.667 106 107c2.66699 0 4.33398 0.166992 5.00098 0.5
l1 0.5h8c37.333 0 54.333 -13.667 51 -41zM576.999 341l-17 -30.001l-7.5 1.5l-2.5 0.5h1h-8c-14 0 -30.333 -5.33301 -49 -16c-22.667 -16 -37.667 -32.333 -45 -49c-6.66699 -16.667 2 -25 26 -25c6 0 11.333 0.166992 16 0.5s9 0.833008 13 1.5h2l-6 -19
c-8.66699 -1.33301 -15.5 -2.66602 -20.5 -3.99902s-9.5 -2 -13.5 -2c-32.667 0 -47.334 17.667 -44.001 53c0 0.666992 1 3.66699 3 9l3 7c14.667 38 64.334 62 149.001 72zM437.999 338.999l-58 -122l-39 -9l67 125zM1050 275.999l-3 40l-50 -40h53zM676.999 277.999
c2.66699 6 2.66602 11.001 -0.000976562 15.001c-2 10 -10.667 15 -26 15c-17.333 0 -37.666 -12.667 -60.999 -38l-3 -8c-8 -19.333 -3.33301 -29 14 -29c4 0 9.83301 0.666992 17.5 2s17.167 3.66602 28.5 6.99902c16 12.667 26 24.667 30 36z" />
    <glyph glyph-name="FL00BFh" unicode="&#xbf;" horiz-adv-x="864" 
d="M887 360l-693.999 -0.000976562l-109 -271c-4 -9.33301 -4.66699 -19.166 -2 -29.499s7.5 -20 14.5 -29s15.5 -16.333 25.5 -22s20.667 -8.5 32 -8.5h662l61 150h-573l24 60h383c32 0 62.167 7.33301 90.5 22s50.166 40.667 65.499 78zM776.001 569.999l-60 -149h195
l60 149h-195z" />
    <glyph glyph-name="FL00C0h" unicode="&#xc0;" 
d="M640 778l32 -147h171l-9 147h-194zM482 570l48 -104l-95 -91h201l19 -76h-305l-322 -299h219l167 150h278l43 -150h220l-153 570h-320z" />
    <glyph glyph-name="FL00C1h" unicode="&#xc1;" 
d="M776 778l-127 -147h171l150 147h-194zM482 570l48 -104l-95 -91h201l19 -76h-305l-322 -299h219l167 150h278l43 -150h220l-153 570h-320z" />
    <glyph glyph-name="FL00C2h" unicode="&#xc2;" 
d="M695 631l85 85l17 -85h194l-33 147h-307l-150 -147h194zM482 570l48 -104l-95 -91h201l19 -76h-305l-322 -299h219l167 150h278l43 -150h220l-153 570h-320z" />
    <glyph glyph-name="FL00C3h" unicode="&#xc3;" 
d="M610 631l83 83l19 -83h273l150 147h-194l-83 -83l-19 83h-273l-150 -147h194zM482 570l48 -104l-95 -91h201l19 -76h-305l-322 -299h219l167 150h278l43 -150h220l-153 570h-320z" />
    <glyph glyph-name="FL00C5h" unicode="&#xc4;" 
d="M692 631l59 147h-193l-59 -147h193zM993 631l59 147h-193l-59 -147h193zM482 570l48 -104l-95 -91h201l19 -76h-305l-322 -299h219l167 150h278l43 -150h220l-153 570h-320z" />
    <glyph glyph-name="FL00C6h" unicode="&#xc5;" 
d="M736 681l19 47h59l-19 -47h-59zM843 631l59 147h-193l-59 -147h193zM482 570l48 -104l-95 -91h201l19 -76h-305l-322 -299h219l167 150h278l43 -150h220l-153 570h-320z" />
    <glyph glyph-name="FL00C8h" unicode="&#xc6;" horiz-adv-x="1554" 
d="M484 570l48 -103l-97 -92h201l19 -76h-305l-322 -299h219l167 150h278l43 -150h770l61 151h-652l-16 60h502l61 150h-560l-26 -64l-73 273h-318zM1736 570h-751l-60 -149h751z" />
    <glyph glyph-name="FL00C7h" unicode="&#xc7;" horiz-adv-x="861" 
d="M304 149l110 272h569l60 149h-765l-180 -446c-15.333 -38 -13.5 -68.167 5.5 -90.5s53.5 -33.5 103.5 -33.5h223l-19 -47h-125l-50 -125h260l69 172h248l60 149h-569z" />
    <glyph glyph-name="FL0CABh" unicode="&#xc8;" horiz-adv-x="958" 
d="M1140 570h-882l70 -149h752zM219 151l-61 -151h751l61 151h-751zM304 361l-61 -150h561l61 150h-561zM679 778l32 -147h171l-9 147h-194z" />
    <glyph glyph-name="FL00C9h" unicode="&#xc9;" horiz-adv-x="958" 
d="M1140 570h-882l70 -149h752zM219 151l-61 -151h751l61 151h-751zM304 361l-61 -150h561l61 150h-561zM822 778l-127 -147h171l150 147h-194z" />
    <glyph glyph-name="FL00CAh" unicode="&#xca;" horiz-adv-x="958" 
d="M1140 570h-882l70 -149h752zM219 151l-61 -151h751l61 151h-751zM304 361l-61 -150h561l61 150h-561zM737 631l85 85l17 -85h194l-33 147h-307l-150 -147h194z" />
    <glyph glyph-name="FL00CBh" unicode="&#xcb;" horiz-adv-x="958" 
d="M1140 570h-882l70 -149h752zM219 151l-61 -151h751l61 151h-751zM304 361l-61 -150h561l61 150h-561zM735 631l59 147h-193l-59 -147h193zM1036 631l59 147h-193l-59 -147h193z" />
    <glyph glyph-name="FL00CCh" unicode="&#xcc;" horiz-adv-x="401" 
d="M258 570l70 -149l-170 -421h195l230 570h-325zM370 778l32 -147h171l-9 147h-194z" />
    <glyph glyph-name="FL00CDh" unicode="&#xcd;" horiz-adv-x="401" 
d="M258 570l70 -149l-170 -421h195l230 570h-325zM475 778l-127 -147h171l150 147h-194z" />
    <glyph glyph-name="FL00CEh" unicode="&#xce;" horiz-adv-x="401" 
d="M258 570l70 -149l-170 -421h195l230 570h-325zM459 631l85 85l17 -85h194l-33 147h-307l-150 -147h194z" />
    <glyph glyph-name="FL00CFh" unicode="&#xcf;" horiz-adv-x="401" 
d="M258 570l70 -149l-170 -421h195l230 570h-325zM457 631l59 147h-193l-59 -147h193zM758 631l59 147h-193l-59 -147h193z" />
    <glyph glyph-name="FL00D0h" unicode="&#xd0;" horiz-adv-x="1062" 
d="M194 361l-60.9971 -150h120l-85 -211h686c24.667 0 48.167 3.16699 70.5 9.5s42.666 15 60.999 26s34.166 24 47.499 39s23.666 31.5 30.999 49.5l180 446h-846l-60 -149h649l-109 -271h-454l24 61h123l61 150h-438z" />
    <glyph glyph-name="FL00D1h" unicode="&#xd1;" horiz-adv-x="986" 
d="M258 570l70 -149l-170 -421h195l124 307l313 -307h148l230 570h-197l-125 -309l-308 309h-280zM667 631l83 83l19 -83h273l150 147h-194l-83 -83l-19 83h-273l-150 -147h194z" />
    <glyph glyph-name="FL00D2h" unicode="&#xd2;" horiz-adv-x="946" 
d="M640 778l32 -147h171l-9 147h-194zM980 570h-556.998c-52 0 -93.5 -10.667 -124.5 -32s-53.167 -49 -66.5 -83l-14 -34h651l-110 -272h-455l77 191h-196l-87 -216c-15.333 -38 -13.333 -68.167 6 -90.5s54 -33.5 104 -33.5h527c50 0 93.667 11.167 131 33.5
s63.666 52.5 78.999 90.5l134 331c6.66699 16.667 10.167 32.167 10.5 46.5s-3.33398 26.5 -11.001 36.5s-19.5 17.833 -35.5 23.5s-37 8.5 -63 8.5z" />
    <glyph glyph-name="FL00D3h" unicode="&#xd3;" horiz-adv-x="946" 
d="M740 778l-127 -147h171l150 147h-194zM980 570h-556.998c-52 0 -93.5 -10.667 -124.5 -32s-53.167 -49 -66.5 -83l-14 -34h651l-110 -272h-455l77 191h-196l-87 -216c-15.333 -38 -13.333 -68.167 6 -90.5s54 -33.5 104 -33.5h527c50 0 93.667 11.167 131 33.5
s63.666 52.5 78.999 90.5l134 331c6.66699 16.667 10.167 32.167 10.5 46.5s-3.33398 26.5 -11.001 36.5s-19.5 17.833 -35.5 23.5s-37 8.5 -63 8.5z" />
    <glyph glyph-name="FL00D4h" unicode="&#xd4;" horiz-adv-x="946" 
d="M677 631l85 85l17 -85h194l-33 147h-307l-150 -147h194zM980 570h-556.998c-52 0 -93.5 -10.667 -124.5 -32s-53.167 -49 -66.5 -83l-14 -34h651l-110 -272h-455l77 191h-196l-87 -216c-15.333 -38 -13.333 -68.167 6 -90.5s54 -33.5 104 -33.5h527
c50 0 93.667 11.167 131 33.5s63.666 52.5 78.999 90.5l134 331c6.66699 16.667 10.167 32.167 10.5 46.5s-3.33398 26.5 -11.001 36.5s-19.5 17.833 -35.5 23.5s-37 8.5 -63 8.5z" />
    <glyph glyph-name="FL00D5h" unicode="&#xd5;" horiz-adv-x="946" 
d="M592 631l83 83l19 -83h273l150 147h-194l-83 -83l-19 83h-273l-150 -147h194zM980 570h-556.998c-52 0 -93.5 -10.667 -124.5 -32s-53.167 -49 -66.5 -83l-14 -34h651l-110 -272h-455l77 191h-196l-87 -216c-15.333 -38 -13.333 -68.167 6 -90.5s54 -33.5 104 -33.5h527
c50 0 93.667 11.167 131 33.5s63.666 52.5 78.999 90.5l134 331c6.66699 16.667 10.167 32.167 10.5 46.5s-3.33398 26.5 -11.001 36.5s-19.5 17.833 -35.5 23.5s-37 8.5 -63 8.5z" />
    <glyph glyph-name="FL00D6h" unicode="&#xd6;" horiz-adv-x="946" 
d="M674 631l59 147h-193l-59 -147h193zM975 631l59 147h-193l-59 -147h193zM980 570h-556.998c-52 0 -93.5 -10.667 -124.5 -32s-53.167 -49 -66.5 -83l-14 -34h651l-110 -272h-455l77 191h-196l-87 -216c-15.333 -38 -13.333 -68.167 6 -90.5s54 -33.5 104 -33.5h527
c50 0 93.667 11.167 131 33.5s63.666 52.5 78.999 90.5l134 331c6.66699 16.667 10.167 32.167 10.5 46.5s-3.33398 26.5 -11.001 36.5s-19.5 17.833 -35.5 23.5s-37 8.5 -63 8.5z" />
    <glyph glyph-name="FL00D7h" unicode="&#xd7;" horiz-adv-x="486" 
d="M618 395l-64 106l-153 -109l-65 109l-148 -106l65 -109l-153 -109l63 -106l153 109l65 -109l149 106l-65 109z" />
    <glyph glyph-name="FL00D8h" unicode="&#xd8;" horiz-adv-x="942" 
d="M423 570c-52 0 -93.498 -10.667 -124.498 -32s-53.167 -49 -66.5 -83l-134 -331c-15.333 -38 -13.333 -68.167 6 -90.5s54 -33.5 104 -33.5h526c50 0 93.667 11.167 131 33.5s63.666 52.5 78.999 90.5l134 331c6.66699 16.667 10.167 32.167 10.5 46.5
s-3.33398 26.5 -11.001 36.5s-19.5 17.833 -35.5 23.5s-37 8.5 -63 8.5h-556zM414.002 421h209l-292 -272h-27zM758.002 149h-208l294 272h24z" />
    <glyph glyph-name="FL00F9h" unicode="&#xd9;" horiz-adv-x="932" 
d="M633 778l32 -147h171l-9 147h-194zM278 570l-230 -570h836l230 570h-196l-169 -420h-445l169 420h-195z" />
    <glyph glyph-name="FL00FAh" unicode="&#xda;" horiz-adv-x="932" 
d="M733 778l-127 -147h171l150 147h-194zM278 570l-230 -570h836l230 570h-196l-169 -420h-445l169 420h-195z" />
    <glyph glyph-name="FL00FBh" unicode="&#xdb;" horiz-adv-x="932" 
d="M670 631l85 85l17 -85h194l-33 147h-307l-150 -147h194zM278 570l-230 -570h836l230 570h-196l-169 -420h-445l169 420h-195z" />
    <glyph glyph-name="FL00FCh" unicode="&#xdc;" horiz-adv-x="932" 
d="M667 631l59 147h-193l-59 -147h193zM968 631l59 147h-193l-59 -147h193zM278 570l-230 -570h836l230 570h-196l-169 -420h-445l169 420h-195z" />
    <glyph glyph-name="FL00DDh" unicode="&#xdd;" 
d="M589 0l102 253l494 317h-267l-265 -169l-128 169h-267l238 -317l-102 -253h195zM766 778l-127 -147h171l150 147h-194z" />
    <glyph glyph-name="FL00DEh" unicode="&#xde;" horiz-adv-x="888" 
d="M474 570h-196.002l-97 -242h596l-35 -86h-596l-98 -242h195l38 93h470c14.667 0 30.834 3 48.501 9s34.667 14.5 51 25.5s31.5 24 45.5 39s24.667 31.833 32 50.5l58 145c6.66699 16.667 10.667 32 12 46s-1 26.167 -7 36.5s-16.167 18.333 -30.5 24
s-34.166 8.5 -59.499 8.5h-464z" />
    <glyph glyph-name="FL0042h" unicode="&#xdf;" horiz-adv-x="939" 
d="M193 360l647 0.000976562l25 61h-647l60 149h707c25.333 0 45.5 -2.83301 60.5 -8.5s25.833 -13.667 32.5 -24s9.5 -22.5 8.5 -36.5s-4.83301 -29.333 -11.5 -46l-40 -99c-0.666992 -1.33301 -3.16699 -5 -7.5 -11l-15 -20c-5.66699 -7.33301 -11.667 -14.333 -18 -21
s-11.833 -11.334 -16.5 -14.001c2 -4.66699 3.5 -10.167 4.5 -16.5s1.66699 -12.5 2 -18.5s0.333008 -11.5 0 -16.5s-0.833008 -8.5 -1.5 -10.5l-42 -104c-7.33301 -18.667 -18 -35.5 -32 -50.5s-29.5 -28 -46.5 -39s-34.5 -19.5 -52.5 -25.5s-34.667 -9 -50 -9h-712z
M303 149.001h452l25 62h-452z" />
    <glyph glyph-name="FL00E0h" unicode="&#xe0;" 
d="M640 778l32 -147h171l-9 147h-194zM28 0h219l167 150h278l43 -150h220l-153 570h-162l-205 -195h201l19 -76h-305z" />
    <glyph glyph-name="FL00E1h" unicode="&#xe1;" 
d="M28 0h219l167 150h278l43 -150h220l-153 570h-162l-205 -195h201l19 -76h-305zM776 778l-127 -147h171l150 147h-194z" />
    <glyph glyph-name="FL00E2h" unicode="&#xe2;" 
d="M695 631l85 85l17 -85h194l-33 147h-307l-150 -147h194zM28 0h219l167 150h278l43 -150h220l-153 570h-162l-205 -195h201l19 -76h-305z" />
    <glyph glyph-name="FL00E3h" unicode="&#xe3;" 
d="M610 631l83 83l19 -83h273l150 147h-194l-83 -83l-19 83h-273l-150 -147h194zM28 0h219l167 150h278l43 -150h220l-153 570h-162l-205 -195h201l19 -76h-305z" />
    <glyph glyph-name="FL00E4h" unicode="&#xe4;" 
d="M692 631l59 147h-193l-59 -147h193zM993 631l59 147h-193l-59 -147h193zM28 0h219l167 150h278l43 -150h220l-153 570h-162l-205 -195h201l19 -76h-305z" />
    <glyph glyph-name="FL00E5h" unicode="&#xe5;" 
d="M350 299h305l-19 76h-201l205 195h162l153 -570h-220l-43 150h-278l-167 -150h-219zM650 631l59 147h193l-59 -147h-193zM795 681l19 47h-59l-19 -47h59z" />
    <glyph glyph-name="FL00E6h" unicode="&#xe6;" horiz-adv-x="1554" 
d="M901 361l-26 -64l-73 273h-162l-205 -195h201l19 -76h-305l-322 -299h219l167 150h278l43 -150h770l61 151h-652l-16 60h502l61 150h-560zM985 570l-60 -149h751l60 149h-751z" />
    <glyph glyph-name="FL00E7h" unicode="&#xe7;" horiz-adv-x="861" 
d="M304 149l110 272h569l60 149h-621c-52 0 -93.333 -10.667 -124 -32s-52.667 -49 -66 -83l-134 -331c-15.333 -38 -13.5 -68.167 5.5 -90.5s53.5 -33.5 103.5 -33.5h223l-19 -47h-125l-50 -125h260l69 172h248l60 149h-569z" />
    <glyph glyph-name="FL00E8h" unicode="&#xe8;" horiz-adv-x="848" 
d="M110 151l-61 -151h750l61 151h-750zM195 361l-61 -150h560l61 150h-560zM279 570l-60 -149h751l60 149h-751zM570 778l32 -147h171l-9 147h-194z" />
    <glyph glyph-name="FL00E9h" unicode="&#xe9;" horiz-adv-x="848" 
d="M110 151l-61 -151h750l61 151h-750zM195 361l-61 -150h560l61 150h-560zM279 570l-60 -149h751l60 149h-751zM712 778l-127 -147h171l150 147h-194z" />
    <glyph glyph-name="FL00EAh" unicode="&#xea;" horiz-adv-x="848" 
d="M628 631l85 85l17 -85h194l-33 147h-307l-150 -147h194zM110 151l-61 -151h750l61 151h-750zM195 361l-61 -150h560l61 150h-560zM279 570l-60 -149h751l60 149h-751z" />
    <glyph glyph-name="FL00EBh" unicode="&#xeb;" horiz-adv-x="848" 
d="M625 631l59 147h-193l-59 -147h193zM926 631l59 147h-193l-59 -147h193zM110 151l-61 -151h750l61 151h-750zM195 361l-61 -150h560l61 150h-560zM279 570l-60 -149h751l60 149h-751z" />
    <glyph glyph-name="FL00ECh" unicode="&#xec;" horiz-adv-x="291" 
d="M328 778l32 -147h171l-9 147h-194zM278 570l-230 -570h195l230 570h-195z" />
    <glyph glyph-name="FL00EDh" unicode="&#xed;" horiz-adv-x="291" 
d="M396 778l-127 -147h171l150 147h-194zM278 570l-230 -570h195l230 570h-195z" />
    <glyph glyph-name="FL00EEh" unicode="&#xee;" horiz-adv-x="291" 
d="M350 631l85 85l17 -85h194l-33 147h-307l-150 -147h194zM278 570l-230 -570h195l230 570h-195z" />
    <glyph glyph-name="FL00EFh" unicode="&#xef;" horiz-adv-x="291" 
d="M347 631l59 147h-193l-59 -147h193zM648 631l59 147h-193l-59 -147h193zM278 570l-230 -570h195l230 570h-195z" />
    <glyph glyph-name="FL00F0h" unicode="&#xf0;" horiz-adv-x="944" 
d="M48 0h848.002l184 455c6.66699 16.667 10.167 32.167 10.5 46.5s-3.33398 26.5 -11.001 36.5s-19.334 17.833 -35.001 23.5s-36.5 8.5 -62.5 8.5h-200l35 86h-195l-35 -86h-309l-60 -149h652l-24 -60h-652zM785.002 211l-25 -62h-457l25 62h457z" />
    <glyph glyph-name="FL00F1h" unicode="&#xf1;" horiz-adv-x="876" 
d="M557 631l83 83l19 -83h273l150 147h-194l-83 -83l-19 83h-273l-150 -147h194zM278 570l-230 -570h195l124 307l313 -307h148l230 570h-197l-125 -309l-308 309h-150z" />
    <glyph glyph-name="FL00F2h" unicode="&#xf2;" horiz-adv-x="946" 
d="M185 340l-137 -340h850l230 570h-850l-60 -149h654l-109 -271h-459l76 190h-195zM640 778l32 -147h171l-9 147h-194z" />
    <glyph glyph-name="FL00F3h" unicode="&#xf3;" horiz-adv-x="946" 
d="M740 778l-127 -147h171l150 147h-194zM185 340l-137 -340h850l230 570h-850l-60 -149h654l-109 -271h-459l76 190h-195z" />
    <glyph glyph-name="FL00F4h" unicode="&#xf4;" horiz-adv-x="946" 
d="M185 340l-137 -340h850l230 570h-850l-60 -149h654l-109 -271h-459l76 190h-195zM677 631l85 85l17 -85h194l-33 147h-307l-150 -147h194z" />
    <glyph glyph-name="FL00F5h" unicode="&#xf5;" horiz-adv-x="946" 
d="M592 631l83 83l19 -83h273l150 147h-194l-83 -83l-19 83h-273l-150 -147h194zM185 340l-137 -340h850l230 570h-850l-60 -149h654l-109 -271h-459l76 190h-195z" />
    <glyph glyph-name="FL00F6h" unicode="&#xf6;" horiz-adv-x="946" 
d="M674 631l59 147h-193l-59 -147h193zM975 631l59 147h-193l-59 -147h193zM185 340l-137 -340h850l230 570h-850l-60 -149h654l-109 -271h-459l76 190h-195z" />
    <glyph glyph-name="FL00F7h" unicode="&#xf7;" horiz-adv-x="618" 
d="M564 393l59 147h-193l-59 -147h193zM194 361l-61 -150h522l61 150h-522zM417 30l60 147h-193l-60 -147h193z" />
    <glyph glyph-name="FL00F8h" unicode="&#xf8;" horiz-adv-x="942" 
d="M48 0h846l230 570h-846zM413 421h209l-291 -271h-27zM868 421l-109 -271h-208l291 271h26z" />
    <glyph glyph-name="FL00D9h" unicode="&#xf9;" horiz-adv-x="932" 
d="M633 778l32 -147h171l-9 147h-194zM1114 570h-195l-169 -420h-444l169 420h-197l-180 -446c-14.667 -36 -12.5 -65.667 6.5 -89s53.5 -35 103.5 -35h676z" />
    <glyph glyph-name="FL00DAh" unicode="&#xfa;" horiz-adv-x="932" 
d="M733 778l-127 -147h171l150 147h-194zM1114 570h-195l-169 -420h-444l169 420h-197l-180 -446c-14.667 -36 -12.5 -65.667 6.5 -89s53.5 -35 103.5 -35h676z" />
    <glyph glyph-name="FL00DBh" unicode="&#xfb;" horiz-adv-x="932" 
d="M670 631l85 85l17 -85h194l-33 147h-307l-150 -147h194zM1114 570h-195l-169 -420h-444l169 420h-197l-180 -446c-14.667 -36 -12.5 -65.667 6.5 -89s53.5 -35 103.5 -35h676z" />
    <glyph glyph-name="FL00DCh" unicode="&#xfc;" horiz-adv-x="932" 
d="M667 631l59 147h-193l-59 -147h193zM968 631l59 147h-193l-59 -147h193zM1114 570h-195l-169 -420h-444l169 420h-197l-180 -446c-14.667 -36 -12.5 -65.667 6.5 -89s53.5 -35 103.5 -35h676z" />
    <glyph glyph-name="FL00FDh" unicode="&#xfd;" horiz-adv-x="885" 
d="M787 360h-398.999l85 210h-195l-97 -242c-9.33301 -22 -13.166 -40.5 -11.499 -55.5s6.66699 -27.167 15 -36.5s19.666 -16 33.999 -20s30.166 -6 47.499 -6h461l-24 -60h-594l-61 -150h683c12 -0 25.333 2.83301 40 8.5s29 12.834 43 21.501s26.333 18.167 37 28.5
s18 20.166 22 29.499l194 482h-195zM720.001 778l-127 -147h171l150 147h-194z" />
    <glyph glyph-name="FL00FEh" unicode="&#xfe;" horiz-adv-x="888" 
d="M474 570h-196.002l-97 -242h596l-35 -86h-596l-98 -242h195l38 93h470c14.667 0 30.834 3 48.501 9s34.667 14.5 51 25.5s31.5 24 45.5 39s24.667 31.833 32 50.5l58 145c6.66699 16.667 10.667 32 12 46s-1 26.167 -7 36.5s-16.167 18.333 -30.5 24
s-34.166 8.5 -59.499 8.5h-464z" />
    <glyph glyph-name="FL00FFh" unicode="&#xff;" horiz-adv-x="885" 
d="M643 631l59 147h-193l-59 -147h193zM944 631l59 147h-193l-59 -147h193zM787 360h-398.999l85 210h-195l-97 -242c-9.33301 -22 -13.166 -40.5 -11.499 -55.5s6.66699 -27.167 15 -36.5s19.666 -16 33.999 -20s30.166 -6 47.499 -6h461l-24 -60h-594l-61 -150h683
c12 -0 25.333 2.83301 40 8.5s29 12.834 43 21.501s26.333 18.167 37 28.5s18 20.166 22 29.499l194 482h-195z" />
    <glyph glyph-name="FL0152h" unicode="&#x152;" horiz-adv-x="1418" 
d="M1430 150h-1125l109 271h1126l60 149h-1322l-180 -446c-15.333 -38 -13.5 -68.167 5.5 -90.5s53.5 -33.5 103.5 -33.5h1162zM1325 361h-559l-61 -150h559z" />
    <glyph glyph-name="FL0153h" unicode="&#x153;" horiz-adv-x="1418" 
d="M1430 150h-1125l109 271h1126l60 149h-1178c-52 0 -93.333 -10.667 -124 -32s-52.667 -49 -66 -83l-134 -331c-15.333 -38 -13.5 -68.167 5.5 -90.5s53.5 -33.5 103.5 -33.5h1162zM1325 361h-559l-61 -150h559z" />
    <glyph glyph-name="FL0160h" unicode="&#x160;" horiz-adv-x="915" 
d="M822 778l-85 -85l-17 85h-194l33 -147h307l150 147h-194zM751 210l-24 -60h-618l-61 -150h813l145 360h-618l25 60h618l60 150h-813l-145 -360h618z" />
    <glyph glyph-name="FL0161h" unicode="&#x161;" horiz-adv-x="915" 
d="M727 150l-618.002 -0.000976562l-61 -150h708c12 0 25.333 2.83301 40 8.5s28.834 12.834 42.501 21.501s25.834 18.167 36.501 28.5s18 20.166 22 29.499l109 272h-618l25 60h618l60 150h-707c-11.333 0 -24.333 -2.83301 -39 -8.5s-29 -13 -43 -22
s-26.5 -18.667 -37.5 -29s-18.5 -20.166 -22.5 -29.499l-109 -271h618zM821.998 777.999l-85 -85l-17 85h-194l33 -147h307l150 147h-194z" />
    <glyph glyph-name="FL0178h" unicode="&#x178;" 
d="M692 631l59 147h-193l-59 -147h193zM993 631l59 147h-193l-59 -147h193zM589 0l102 253l494 317h-267l-265 -169l-128 169h-267l238 -317l-102 -253h195z" />
    <glyph glyph-name="FL017Dh" unicode="&#x17d;" horiz-adv-x="976" 
d="M1158 570h-900l70 -150h463l-573 -271l-60 -149h770l61 150h-464l573 272zM908 778l-85 -85l-17 85h-194l33 -147h307l150 147h-194z" />
    <glyph glyph-name="FL017Eh" unicode="&#x17e;" horiz-adv-x="866" 
d="M798 778l-85 -85l-17 85h-194l33 -147h307l150 147h-194zM415 150l573 272l60 148h-770l-60 -150h463l-573 -271l-60 -149h770l61 150h-464z" />
    <glyph glyph-name="FL009Fh" unicode="&#x192;" horiz-adv-x="943" 
d="M1032 340h-195l-76 -190h-455l109 271h650l60 149h-847l-180 -446c-15.333 -38 -13.333 -68.167 6 -90.5s54 -33.5 104 -33.5h687z" />
    <glyph glyph-name="FL02C6h" unicode="&#x2c6;" horiz-adv-x="546" 
d="M452 570l86 85l16 -85h194l-32 147h-307l-151 -147h194z" />
    <glyph glyph-name="FL02DCh" unicode="&#x2dc;" horiz-adv-x="716" 
d="M452 570l84 83l18 -83h273l151 147h-194l-84 -83l-18 83h-273l-151 -147h194z" />
    <glyph glyph-name="FL2013h" unicode="&#x2013;" horiz-adv-x="534" 
d="M194 361l-61 -150h438l61 150h-438z" />
    <glyph glyph-name="FL2014h" unicode="&#x2014;" horiz-adv-x="618" 
d="M194 361l-61 -150h522l61 150h-522z" />
    <glyph glyph-name="FL2018h" unicode="&#x2018;" horiz-adv-x="291" 
d="M473 570h-36c-50 0 -92.333 -8.5 -127 -25.5s-59.667 -44.5 -75 -82.5l-47 -116h195z" />
    <glyph glyph-name="FL2019h" unicode="&#x2019;" horiz-adv-x="291" 
d="M188 346h36c50 0 92.333 8.5 127 25.5s59.667 44.5 75 82.5l47 116h-195z" />
    <glyph glyph-name="FL201Ah" unicode="&#x201a;" horiz-adv-x="291" 
d="M18 -75h36c50 0 92.333 8.5 127 25.5s59.667 44.5 75 82.5l47 116h-195z" />
    <glyph glyph-name="FL201Ch" unicode="&#x201c;" horiz-adv-x="533" 
d="M473 570h-36c-50 0 -92.333 -8.5 -127 -25.5s-59.667 -44.5 -75 -82.5l-47 -116h195zM715 570h-36c-50 0 -92.333 -8.5 -127 -25.5s-59.667 -44.5 -75 -82.5l-47 -116h195z" />
    <glyph glyph-name="FL201Dh" unicode="&#x201d;" horiz-adv-x="533" 
d="M430 346h36c50 0 92.333 8.5 127 25.5s59.667 44.5 75 82.5l47 116h-195zM188 346h36c50 0 92.333 8.5 127 25.5s59.667 44.5 75 82.5l47 116h-195z" />
    <glyph glyph-name="FL201Eh" unicode="&#x201e;" horiz-adv-x="535" 
d="M262 -75h36c50 0 92.333 8.5 127 25.5s59.667 44.5 75 82.5l47 116h-195zM18 -75h36c50 0 92.333 8.5 127 25.5s59.667 44.5 75 82.5l47 116h-195z" />
    <glyph glyph-name="FL2020h" unicode="&#x2020;" horiz-adv-x="618" 
d="M240 476l-60 -150h163l-132 -326h195l132 326h164l60 150h-164l38 94h-195l-38 -94h-163z" />
    <glyph glyph-name="FL2021h" unicode="&#x2021;" horiz-adv-x="618" 
d="M240 476l-60 -150h163l-33 -80h-163l-60 -150h163l-39 -96h195l39 96h164l60 150h-164l33 80h164l60 150h-164l38 94h-195l-38 -94h-163z" />
    <glyph glyph-name="FL2022h" unicode="&#x2022;" horiz-adv-x="946" 
d="M48 0h850l230 570h-850z" />
    <glyph glyph-name="FL2026h" unicode="&#x2026;" horiz-adv-x="815" 
d="M767 0l60 149h-195l-60 -149h195zM505 0l60 149h-195l-60 -149h195zM243 0l60 149h-195l-60 -149h195z" />
    <glyph glyph-name="FL2030h" unicode="&#x2030;" horiz-adv-x="1667" 
d="M1132 570h-215l-618 -570h216zM1072 176l-27 -68h-114l27 68h114zM732 0h424l115 285h-424zM503 461l-27 -68h-114l27 68h114zM163 285h424l115 285h-424zM1535 176l-27 -68h-114l27 68h114zM1195 0h424l115 285h-424z" />
    <glyph glyph-name="FL2039h" unicode="&#x2039;" horiz-adv-x="654" 
d="M589 570h267l-445 -285l215 -285h-267l-216 285z" />
    <glyph glyph-name="FL203Ah" unicode="&#x203a;" horiz-adv-x="653" 
d="M258 570h267l215 -285l-445 -285h-267l444 285z" />
    <glyph glyph-name="FL20ACh" unicode="&#x20ac;" horiz-adv-x="976" 
d="M202 382l-32 -79h145l-15 -38h-145l-31 -78h145l-26 -63c-15.333 -38 -13.333 -68.167 6 -90.5s54 -33.5 104 -33.5h575l60 149h-539l16 38h257l31 78h-257l15 38h257l32 79h-257l16 39h539l60 149h-735l-76 -188h-145z" />
    <glyph glyph-name="FL2122h" unicode="&#x2122;" horiz-adv-x="393" 
d="M427 577c2.66699 1.33301 5.33398 2 8.00098 2c4 0 6 0.333008 6 1v1c-0.666992 0 -0.833984 0.166992 -0.500977 0.5s0.833008 0.5 1.5 0.5c4.66699 0 10 -4.16699 16 -12.5s9 -16.833 9 -25.5l-1 -7v-29c0 -8 -0.333008 -15 -1 -21
c6.66699 7.33301 12.167 14.333 16.5 21s9.83301 14.667 16.5 24c14.667 19.333 28 32.333 40 39s23.667 10 35 10h7l-54 -133h-18l36 89l-2 9l-10 -12c-3.33301 -4 -6.66602 -7.66699 -9.99902 -11l-37 -43l-19.5 -22c-4.33301 -4.66699 -7.5 -7.5 -9.5 -8.5
s-4.33301 -1.5 -7 -1.5c-2 0 -3.83301 0.333008 -5.5 1s-2.83398 3 -3.50098 7l-3 86l-10 -7l-35 -87h-17zM259 560l9 21h135l-9 -21h-56l-45 -112h-24l45 112h-55z" />
    <glyph glyph-name=".null" horiz-adv-x="0" 
 />
    <glyph glyph-name="nonmarkingreturn" horiz-adv-x="500" 
 />
    <glyph glyph-name="FLE004h" horiz-adv-x="980" 
d="M194 0h738.998l60 149h-688l110 271h389l-77 -190h196l87 216c15.333 38 13.333 68.167 -6 90.5s-54 33.5 -104 33.5h-461c-50 0 -93.667 -11.167 -131 -33.5s-63.666 -52.5 -78.999 -90.5l-134 -331c-6.66699 -17.333 -10.167 -33 -10.5 -47s3.33398 -26 11.001 -36
s19.5 -17.833 35.5 -23.5s37 -8.5 63 -8.5z" />
    <glyph glyph-name="FLE003h" horiz-adv-x="943" 
d="M980 570h-556.998c-52 0 -93.5 -10.667 -124.5 -32s-53.167 -49 -66.5 -83l-14 -34h651l-110 -272h-455l77 191h-196l-87 -216c-15.333 -38 -13.333 -68.167 6 -90.5s54 -33.5 104 -33.5h527c50 0 93.667 11.167 131 33.5s63.666 52.5 78.999 90.5l134 331
c6.66699 16.667 10.167 32.167 10.5 46.5s-3.33398 26.5 -11.001 36.5s-19.5 17.833 -35.5 23.5s-37 8.5 -63 8.5z" />
    </font>
</defs>
</svg>
