<svg xmlns="http://www.w3.org/2000/svg" xmlns:xlink="http://www.w3.org/1999/xlink" viewBox="0 0 194.05 222.17"><defs><style>.cls-1{fill:url(#Безымянный_градиент_204);}.cls-2{fill:url(#Безымянный_градиент_204-2);}.cls-3{fill:url(#Безымянный_градиент_204-3);}.cls-4{fill:url(#Безымянный_градиент_204-4);}.cls-5{fill:url(#Безымянный_градиент_2);}.cls-6{fill:url(#Безымянный_градиент_2-2);}.cls-7{fill:url(#Безымянный_градиент_148);}.cls-8{fill:url(#Безымянный_градиент_148-2);}.cls-9{fill:url(#Безымянный_градиент_6);}.cls-10{fill:url(#Безымянный_градиент_162);}.cls-11{fill:url(#Безымянный_градиент_152);}.cls-12{fill:url(#Безымянный_градиент_163);}.cls-13{fill:url(#Безымянный_градиент_182);}.cls-14{fill:url(#Безымянный_градиент_143);}.cls-15{fill:url(#Безымянный_градиент_182-2);}.cls-16{fill:url(#Безымянный_градиент_193);}.cls-17{fill:url(#Безымянный_градиент_193-2);}.cls-18{fill:#3b67a0;}.cls-19{fill:url(#Безымянный_градиент_3);}.cls-20{fill:url(#Безымянный_градиент_3-2);}.cls-21{fill:url(#Безымянный_градиент_3-3);}.cls-22{fill:url(#Безымянный_градиент_3-4);}.cls-23{fill:url(#Безымянный_градиент_3-5);}.cls-24{fill:url(#Безымянный_градиент_3-6);}.cls-25{fill:url(#Безымянный_градиент_3-7);}.cls-26{fill:#fff;}.cls-27{fill:url(#Безымянный_градиент_3-8);}.cls-28{fill:url(#Безымянный_градиент_3-9);}</style><radialGradient id="Безымянный_градиент_204" cx="65.34" cy="73.25" r="30.94" gradientUnits="userSpaceOnUse"><stop offset="0.24" stop-color="#12436a"/><stop offset="1" stop-color="#0a2436"/></radialGradient><radialGradient id="Безымянный_градиент_204-2" cx="106.22" cy="98.32" r="30.21" xlink:href="#Безымянный_градиент_204"/><radialGradient id="Безымянный_градиент_204-3" cx="89.16" cy="33.6" r="30.21" xlink:href="#Безымянный_градиент_204"/><radialGradient id="Безымянный_градиент_204-4" cx="130.05" cy="58.68" r="30.94" xlink:href="#Безымянный_градиент_204"/><linearGradient id="Безымянный_градиент_2" x1="45.58" y1="57.16" x2="148.05" y2="59.23" gradientUnits="userSpaceOnUse"><stop offset="0" stop-color="#c2f8f9"/><stop offset="0.3" stop-color="#c9f7ed"/><stop offset="0.7" stop-color="#80c7da"/><stop offset="1" stop-color="#b4eaed"/></linearGradient><linearGradient id="Безымянный_градиент_2-2" x1="46.17" y1="27.72" x2="148.64" y2="29.79" xlink:href="#Безымянный_градиент_2"/><linearGradient id="Безымянный_градиент_148" x1="9909.43" y1="5939.15" x2="9809.02" y2="5938.12" gradientTransform="translate(11408.4 6027.75) rotate(180)" xlink:href="#Безымянный_градиент_2"/><linearGradient id="Безымянный_градиент_148-2" x1="146.23" y1="103.88" x2="45.83" y2="102.85" xlink:href="#Безымянный_градиент_2"/><radialGradient id="Безымянный_градиент_6" cx="148.33" cy="39.43" r="83.62" gradientUnits="userSpaceOnUse"><stop offset="0" stop-color="#a7efe7"/><stop offset="0.7" stop-color="#67aeca"/><stop offset="1" stop-color="#182e7e"/></radialGradient><linearGradient id="Безымянный_градиент_162" x1="75.3" y1="29.05" x2="144.5" y2="29.05" gradientUnits="userSpaceOnUse"><stop offset="0" stop-color="#4376a9"/><stop offset="0.3" stop-color="#80c7da"/><stop offset="0.7" stop-color="#c9f7ed"/><stop offset="1" stop-color="#c2f8f9"/></linearGradient><radialGradient id="Безымянный_градиент_152" cx="46.52" cy="93.41" r="83.31" xlink:href="#Безымянный_градиент_6"/><linearGradient id="Безымянный_градиент_163" x1="50.88" y1="102.87" x2="120.08" y2="102.87" gradientUnits="userSpaceOnUse"><stop offset="0" stop-color="#c2f8f9"/><stop offset="0.3" stop-color="#c9f7ed"/><stop offset="0.7" stop-color="#80c7da"/><stop offset="1" stop-color="#4376a9"/></linearGradient><linearGradient id="Безымянный_градиент_182" x1="88.1" y1="100.82" x2="50.77" y2="27.89" gradientUnits="userSpaceOnUse"><stop offset="0" stop-color="#3e7ba8"/><stop offset="0.46" stop-color="#a7efe7"/><stop offset="0.83" stop-color="#67aeca"/><stop offset="1" stop-color="#182e7e"/></linearGradient><linearGradient id="Безымянный_градиент_143" x1="97.67" y1="26.51" x2="97.68" y2="26.52" gradientUnits="userSpaceOnUse"><stop offset="0" stop-color="#67b3a7"/><stop offset="0.3" stop-color="#a7efe7"/><stop offset="0.7" stop-color="#67aeca"/><stop offset="1" stop-color="#182e7e"/></linearGradient><linearGradient id="Безымянный_градиент_182-2" x1="106.5" y1="30.56" x2="145.25" y2="103.42" xlink:href="#Безымянный_градиент_182"/><linearGradient id="Безымянный_градиент_193" x1="90.19" y1="76.72" x2="147.11" y2="76.72" gradientUnits="userSpaceOnUse"><stop offset="0" stop-color="#4376a9"/><stop offset="0.3" stop-color="#80c7da"/><stop offset="0.74" stop-color="#d7fcf9"/><stop offset="1" stop-color="#dfffff"/></linearGradient><linearGradient id="Безымянный_градиент_193-2" x1="105.17" y1="55.21" x2="48.26" y2="55.21" xlink:href="#Безымянный_градиент_193"/><linearGradient id="Безымянный_градиент_3" x1="21.66" y1="194.06" x2="21.66" y2="158.7" gradientUnits="userSpaceOnUse"><stop offset="0" stop-color="#80c7da"/><stop offset="1" stop-color="#c9f7ed"/></linearGradient><linearGradient id="Безымянный_градиент_3-2" x1="123.9" y1="194.05" x2="123.9" y2="158.7" xlink:href="#Безымянный_градиент_3"/><linearGradient id="Безымянный_градиент_3-3" x1="40.26" y1="194.17" x2="40.26" y2="220.92" xlink:href="#Безымянный_градиент_3"/><linearGradient id="Безымянный_градиент_3-4" x1="67.7" y1="194.17" x2="67.7" y2="220.92" xlink:href="#Безымянный_градиент_3"/><linearGradient id="Безымянный_градиент_3-5" x1="97.6" y1="194.17" x2="97.6" y2="220.92" xlink:href="#Безымянный_градиент_3"/><linearGradient id="Безымянный_градиент_3-6" x1="128.22" y1="194.17" x2="128.22" y2="220.92" xlink:href="#Безымянный_градиент_3"/><linearGradient id="Безымянный_градиент_3-7" x1="154.74" y1="194.17" x2="154.74" y2="220.92" xlink:href="#Безымянный_градиент_3"/><linearGradient id="Безымянный_градиент_3-8" x1="72.64" y1="194.06" x2="72.64" y2="158.7" xlink:href="#Безымянный_градиент_3"/><linearGradient id="Безымянный_градиент_3-9" x1="169.09" y1="194.06" x2="169.09" y2="158.7" xlink:href="#Безымянный_градиент_3"/></defs><title>Solo-games_logo_invertion</title><g id="Слой_2" data-name="Слой 2"><g id="Слой_1-2" data-name="Слой 1"><path class="cls-1" d="M90.15,100.13C76,109,63.38,111.93,57.59,106.69a3.14,3.14,0,0,1-.32-.31c-.33-.32-.65-.65-1-1s-.47-.5-.7-.76L55,104c-.58-.65-1.14-1.31-1.69-2-.26-.32-.52-.66-.78-1q-1-1.22-1.83-2.49c-.25-.34-.48-.68-.71-1-.34-.51-.67-1-1-1.55-.45-.72-.88-1.46-1.29-2.2-.17-.29-.33-.57-.48-.87l-.33-.64a.05.05,0,0,1,0,0,1.4,1.4,0,0,1-.09-.17c-.19-.37-.38-.75-.56-1.14A4,4,0,0,1,46,90.4c-.17-.35-.34-.71-.49-1.07a1.83,1.83,0,0,1-.14-.32c-.23-.5-.44-1-.64-1.49l0,0c-.41-1-.79-2-1.14-3.06a1.83,1.83,0,0,1-.08-.25c-.17-.49-.33-1-.48-1.48-.32-1.09-.62-2.18-.89-3.29-.16-.64-.31-1.28-.43-1.94-.09-.43-.17-.86-.26-1.29V76c-.11-.54-.2-1.09-.27-1.64s-.15-1-.22-1.58v-.09q-.1-.84-.18-1.68c0-.56-.09-1.12-.12-1.67,0,0,0,0,0-.05,0-.45-.05-.91-.07-1.36,0-.66,0-1.33,0-2,0-9,4.61-20.53,8.86-28.75C50.88,45.12,52.28,56.7,58.24,66A131.05,131.05,0,0,0,75.93,87.73,134.17,134.17,0,0,0,90.15,100.13Z"/><path class="cls-2" d="M138.11,106.38c-.32.33-.65.65-1,1l-.78.72-.59.54c-.65.58-1.31,1.15-2,1.69-.32.28-.66.54-1,.8q-1.23,1-2.49,1.83l-1,.71c-1.49,1-3,1.89-4.57,2.73l-.69.36s0,0,0,0l-1.07.53c-.36.18-.72.36-1.08.52l-.13,0c-.35.17-.71.33-1.08.49l-1.39.59c-.5.21-1,.4-1.51.59l-.16.06c-.45.17-.9.32-1.36.48l-.28.1-1.21.39-2,.59c-.51.14-1,.27-1.52.38s-1.1.26-1.66.37c-1.1.24-2.22.43-3.33.6-.56.08-1.12.16-1.69.22s-1.11.13-1.68.18-1,.08-1.52.11c-1.17.08-2.37.12-3.55.12a57.09,57.09,0,0,1-26.25-6.37c7.91-1.49,17-5.39,26.25-11.35a131,131,0,0,0,21.77-17.68,139.82,139.82,0,0,0,12.42-14.21c8.83,14.18,11.78,26.75,6.54,32.55C138.32,106.18,138.22,106.28,138.11,106.38Z"/><path class="cls-3" d="M97.69,26.51A131,131,0,0,0,75.93,44.2,135.34,135.34,0,0,0,63.51,58.41C54.68,44.23,51.73,31.65,57,25.86a3.14,3.14,0,0,1,.31-.32l1-1,.77-.72.59-.54c.65-.58,1.32-1.14,2-1.69.32-.27.66-.53,1-.8.82-.64,1.65-1.25,2.49-1.82.34-.25.69-.48,1-.71,1.49-1,3-1.9,4.57-2.73l.69-.36.06,0,1.06-.54,1.08-.52.13,0,1.08-.49L76.18,13l1.51-.59.16-.06,1.36-.47.28-.1,1.22-.39,2-.6,1.52-.38c.55-.13,1.1-.26,1.66-.37,1.11-.23,2.22-.43,3.33-.59.56-.09,1.12-.17,1.69-.23s1.12-.12,1.68-.17,1-.09,1.52-.11c1.18-.09,2.37-.12,3.55-.12A57.16,57.16,0,0,1,124,15.17C116,16.66,107,20.55,97.69,26.51Z"/><path class="cls-4" d="M146,94.71C144.5,86.8,143.1,75.23,137.14,66A130.92,130.92,0,0,0,119.46,44.2a134.22,134.22,0,0,0-14.23-12.41C119.41,23,132,20,137.8,25.23l.31.31c.33.32.65.66,1,1s.47.49.7.75l.57.62c.58.65,1.14,1.31,1.69,2,.27.31.53.65.78,1,.64.81,1.25,1.65,1.84,2.49l.71,1c.33.51.67,1,1,1.55.45.72.89,1.46,1.29,2.2q.26.44.48.87c.12.21.22.43.34.64l0,.06s0,.1.08.16c.2.38.38.76.56,1.14a4.81,4.81,0,0,1,.25.51c.17.36.33.7.49,1.07,0,.11.11.21.15.32.21.5.43,1,.63,1.5l0,0c.4,1,.79,2,1.14,3.07l.09.24c.16.5.32,1,.47,1.49.33,1.08.63,2.18.89,3.28.16.64.31,1.29.43,1.95.1.42.18.85.26,1.28l0,.13c.1.55.19,1.09.26,1.64s.16,1.11.23,1.68.12,1.12.17,1.68.09,1.11.13,1.66v.05c0,.45.05.91.06,1.36,0,.66,0,1.33,0,2C154.86,75,150.24,86.5,146,94.71Z"/><path class="cls-5" d="M53.61,58c-.24-.47-.48-.92-.7-1.39a.16.16,0,0,0,0,.07Q53.26,57.35,53.61,58Z"/><path class="cls-6" d="M136.89,15.2a29.92,29.92,0,0,0-12.95,0A57,57,0,0,0,105,9.27a56,56,0,0,0-7.31-.48c-1.18,0-2.37.05-3.55.13-.51,0-1,.06-1.51.1S91.5,9.13,91,9.2s-1.14.14-1.7.23c-1,.15-2,.31-3,.53a2.41,2.41,0,0,0-.37.07c-.55.1-1.09.22-1.65.36l-1.52.38-2,.59-1.22.4-.29.1-1.35.47a.76.76,0,0,1-.16.06L76.18,13l-1.39.59-1.08.48-.13.07c-.36.15-.72.33-1.08.51l-1.06.53-.06,0-.69.36c-1.55.83-3.08,1.74-4.56,2.72-.35.23-.7.47-1,.72-.84.58-1.67,1.18-2.48,1.83-.34.26-.68.52-1,.79-.67.55-1.34,1.11-2,1.7l-.59.53-.77.72-1,1c-.11.11-.21.2-.31.32l-.12.12a25.49,25.49,0,0,0-6.66,23.4,26.31,26.31,0,0,0,1.73,5.16c.33.69.65,1.39,1,2.08l-.09-.17c-.64-1.28-1.24-2.55-1.79-3.8s-.86-2.33-1.2-3.54c-.18-.61-.34-1.22-.48-1.84a36.87,36.87,0,0,1-.9-8.06A36.4,36.4,0,0,1,65,8.77s.06,0,.09,0A32.64,32.64,0,0,1,68.21,7c.19-.1.37-.2.55-.28l.79-.37L70.21,6c.48-.23,1-.44,1.45-.65s1-.41,1.47-.61l1.47-.57,1.5-.54c1-.34,2-.66,3-1l1.52-.42c1.52-.4,3.06-.75,4.59-1.05L86.77.91C88.32.66,89.88.45,91.44.3,93.51.11,95.6,0,97.69,0,111.48,0,125.28,6,136.89,15.2Z"/><path class="cls-7" d="M141.75,73.91c.25.46.49.92.71,1.39a.18.18,0,0,0-.05-.07Q142.09,74.57,141.75,73.91Z"/><path class="cls-8" d="M146.92,92.72a36.06,36.06,0,0,1-12.33,27.19,34.5,34.5,0,0,1-4.27,3.24s0,0-.09.06a34.62,34.62,0,0,1-3.08,1.77l-.55.28-.78.37c-.22.1-.44.21-.66.3-.49.23-1,.44-1.45.65s-1,.42-1.47.61l-1.48.57-1.49.54c-1,.34-2,.66-3,1l-1.52.42c-1.53.4-3.06.76-4.6,1.06l-1.54.27c-1.55.25-3.12.46-4.67.61-2.08.2-4.16.3-6.26.3-13.8,0-27.59-6-39.2-15.2a29.92,29.92,0,0,0,13,0h0a56.47,56.47,0,0,0,18.94,5.89,55.82,55.82,0,0,0,7.3.48c1.18,0,2.38,0,3.56-.12l1.51-.11c.56-.05,1.13-.11,1.68-.18s1.13-.14,1.7-.23c1-.14,2-.31,3-.52l.36-.07q.83-.16,1.65-.36l1.52-.39,2-.59,1.21-.4c.1,0,.19-.07.29-.09l1.35-.48.16-.06,1.52-.59c.45-.18.92-.39,1.39-.59s.72-.31,1.08-.48l.12-.06c.36-.16.72-.34,1.08-.52l1.07-.53s0,0,.06,0c.23-.12.46-.24.68-.37,1.55-.83,3.08-1.74,4.57-2.72l1-.71c.83-.58,1.67-1.19,2.48-1.83l1-.79c.67-.56,1.34-1.12,2-1.7l.59-.54.77-.72c.33-.32.66-.64,1-1a3,3,0,0,0,.31-.31l.13-.13a25.48,25.48,0,0,0,6.65-23.4,25,25,0,0,0-1.73-5.15c-.32-.7-.65-1.39-1-2.09a1.4,1.4,0,0,0,.09.17c.64,1.28,1.24,2.55,1.78,3.81s.86,2.33,1.21,3.53c.18.61.34,1.22.47,1.84A36.43,36.43,0,0,1,146.92,92.72Z"/><path class="cls-9" d="M144.75,19.75c-.14-.15-.27-.29-.42-.43l-.43-.42a16.82,16.82,0,0,0-8.7-4.06l-.74-.12-.76-.09-.95-.08-.95-.06a30.77,30.77,0,0,0-3.44.08l-.83.07c-1.16.12-2.36.29-3.59.52-7.9,1.5-17,5.39-26.25,11.35h0l-1.36.89a133.58,133.58,0,0,0-20.4,16.79A140.61,140.61,0,0,0,63.51,58.4c-1.9,2.52-3.66,5.05-5.27,7.56H68.66A141.38,141.38,0,0,1,82.15,50.41,139.93,139.93,0,0,1,97.68,36.94h0c.4-.29.79-.59,1.19-.87l1.19-.85c1.14-.81,2.28-1.58,3.41-2.31l.82-.52.93-.59.09-.06c1.17-.72,2.33-1.41,3.48-2.06.56-.32,1.1-.62,1.65-.91l.91-.48,1.62-.82q2.19-1.07,4.28-1.91l.64-.25c.59-.23,1.18-.45,1.76-.65l.56-.19c5.61-1.88,10.48-2.35,14.11-1.18a9.08,9.08,0,0,1,1,.36,10.7,10.7,0,0,1,1.34.71,9,9,0,0,1,1.17.89c.11.09.21.19.32.3l1,1c.23.26.47.51.7.76l.57.62c.58.65,1.14,1.32,1.69,2l.78,1c.64.81,1.25,1.64,1.84,2.49l.71,1,1,1.55c.44.72.88,1.46,1.28,2.2.17.29.33.58.48.88s.23.42.34.63l0,.06C150.08,31.36,149,24.32,144.75,19.75Z"/><path class="cls-10" d="M143.9,18.9A16.09,16.09,0,0,0,138.49,16a22,22,0,0,0-6-1,31.15,31.15,0,0,0-6.09.44l-1.51.26-.76.12-.74.17c-.5.11-1,.22-1.5.36s-1,.25-1.48.39a74.14,74.14,0,0,0-11.46,4.43c-1.85.91-3.69,1.83-5.48,2.84s-3.56,2.07-5.32,3.15l-.21.13h-.24l.44-.13c-2,1.24-3.9,2.53-5.81,3.87s-3.77,2.72-5.62,4.14c-3.7,2.85-7.27,5.86-10.77,9A110.07,110.07,0,0,1,86,34.34c1.77-1.54,3.61-3,5.48-4.44s3.82-2.77,5.77-4.07l.19-.13h.27l-.44.13a91.63,91.63,0,0,1,10.93-6.18A64.52,64.52,0,0,1,120,15.29c.51-.14,1-.26,1.53-.37s1-.24,1.55-.32l.78-.15.79-.09,1.57-.2a27.25,27.25,0,0,1,6.32-.14,20.94,20.94,0,0,1,6.16,1.43A15.21,15.21,0,0,1,143.9,18.9Z"/><path class="cls-11" d="M131.88,73.52c1.89-2.52,3.66-5,5.26-7.56H126.72a141.25,141.25,0,0,1-13.48,15.55A141.25,141.25,0,0,1,97.69,95c-2.54,1.89-5.07,3.61-7.54,5.14C76,109,63.38,111.93,57.59,106.69a3.14,3.14,0,0,1-.32-.31c-.33-.32-.65-.65-1-1s-.47-.5-.7-.76L55,104c-.58-.65-1.14-1.31-1.69-2-.26-.32-.52-.66-.78-1q-1-1.22-1.83-2.49c-.25-.34-.48-.68-.71-1-.34-.51-.67-1-1-1.55-.45-.72-.88-1.46-1.29-2.2-.17-.29-.33-.57-.48-.87l-.33-.64a.05.05,0,0,1,0,0c-1.59,8.34-.48,15.38,3.73,20l.42.43c.14.15.28.28.43.42,4.57,4.21,11.62,5.32,20,3.74,7.91-1.49,17-5.39,26.25-11.35a131,131,0,0,0,21.77-17.68A139.82,139.82,0,0,0,131.88,73.52Z"/><path class="cls-12" d="M51.48,113a17.39,17.39,0,0,0,8.78,3.64,31.68,31.68,0,0,0,9.52-.31A56.26,56.26,0,0,0,79,113.83,77.52,77.52,0,0,0,87.87,110c2.88-1.42,5.69-3,8.43-4.7s5.42-3.49,8.06-5.36a187.05,187.05,0,0,0,15.1-12.22,110.54,110.54,0,0,1-14.28,13.32,99.55,99.55,0,0,1-16.53,10.53A60.89,60.89,0,0,1,70,117.7a30.06,30.06,0,0,1-9.88-.19A16.57,16.57,0,0,1,51.48,113Z"/><path class="cls-13" d="M97.69,95c-2.54,1.88-5.06,3.62-7.54,5.15-2.67-2-5.33-4.19-8-6.53L82,93.39c-.66-.58-1.31-1.17-2-1.76l-1.11-1h0l-1.1-1c-.19-.19-.38-.38-.58-.56l-1.26-1.24-1.87-1.91A134.8,134.8,0,0,1,62.49,72.13C61,70.08,59.56,68,58.24,66c-1.12-1.74-2.17-3.47-3.13-5.19-.32-.57-.64-1.14-.94-1.71L53.61,58c-.6-1.15-1.16-2.31-1.7-3.47A25.58,25.58,0,0,1,56.84,26a1.36,1.36,0,0,1,.12-.12C54.15,29,53.7,34,55.26,40.26A65.46,65.46,0,0,0,63.51,58.4c1.53,2.48,3.26,5,5.15,7.56,1.44,1.93,3,3.89,4.61,5.84l.64.76c2.52,3,5.28,6,8.23,9A144.76,144.76,0,0,0,94.71,92.7l1.41,1.1.11.09Z"/><path class="cls-14" d="M97.68,26.51h0Z"/><path class="cls-15" d="M138.53,105.94l-.13.12c2.82-3.11,3.27-8.17,1.71-14.4a66,66,0,0,0-8.24-18.14h0q-2.31-3.7-5.15-7.54h0q-2.17-2.91-4.61-5.84c-.21-.26-.43-.51-.65-.76q-3.78-4.5-8.23-9a143.22,143.22,0,0,0-12.56-11.19l-1.41-1.1L99.13,38c-.5-.38-1-.74-1.45-1.09h0c2.54-1.88,5.07-3.61,7.55-5.14,2.65,2,5.31,4.19,7.92,6.52l.25.22c.66.58,1.31,1.17,2,1.76.38.34.75.69,1.12,1h0a0,0,0,0,0,0,0l1.1,1,.58.56c.43.41.85.83,1.26,1.24.63.64,1.26,1.27,1.87,1.91a136.24,136.24,0,0,1,11.57,13.69c1.51,2.05,2.93,4.12,4.25,6.17,0,0,0,0,0,0,1.11,1.73,2.15,3.46,3.12,5.17l.94,1.7c.18.37.38.72.55,1.06.6,1.15,1.16,2.31,1.7,3.47A25.56,25.56,0,0,1,138.53,105.94Z"/><path class="cls-16" d="M105.53,30.24c2.08,1.6,4.06,3.28,6,5,1,.85,1.95,1.73,2.89,2.59s1.92,1.75,2.85,2.65l-.8-.32h.13l.14,0a1.26,1.26,0,0,1,.61.36,1.16,1.16,0,0,1,.29.57c0,.1,0,.14,0,.17v.06l-.36-.84a1.18,1.18,0,0,0-.27-.2l-.19-.08a1.15,1.15,0,0,0-.32-.05l.79.33c1.94,1.85,3.84,3.81,5.68,5.78s3.63,4,5.35,6.09a127.41,127.41,0,0,1,9.52,13.12L138,66a.84.84,0,0,0-.11-.41.68.68,0,0,0-.14-.2,1.18,1.18,0,0,1,.15.2.88.88,0,0,1,.1.42l-.14-.47c1.17,1.86,2.28,3.74,3.34,5.67s2,3.89,2.93,5.89l.06.15v.14h0l-.07-.28a26.33,26.33,0,0,1-.71,23,26.41,26.41,0,0,1-4.69,6.32l0,0c-1.12,1.12-2.19,2.13-3.37,3.11s-2.34,1.93-3.57,2.82-2.49,1.74-3.79,2.52c-.65.4-1.3.78-2,1.14l-1,.55-1,.54,0,0-1.14.56-1.12.52,0,0c-.69.3-1.38.6-2.07.88-.35.15-.7.28-1,.41l-1,.38-.05,0-1.36.46h0A53.38,53.38,0,0,1,109.9,122a56.91,56.91,0,0,1-6.48,1,59.47,59.47,0,0,1-6.54.23,56.56,56.56,0,0,1-6.51-.53,56.75,56.75,0,0,0,6.51.41,59.08,59.08,0,0,0,6.52-.35,58.41,58.41,0,0,0,12.7-2.87h0l1.35-.49-.05,0,1.09-.44c.34-.14.69-.27,1-.43.68-.29,1.36-.59,2-.91l0,0,2.27-1.14,0,0s-.08,0,0,0l.07,0,.12-.07.25-.13.49-.27,1-.55q1-.57,1.92-1.17c1.27-.8,2.49-1.66,3.69-2.55s2.34-1.85,3.47-2.85,2.22-2,3.21-3.07l0,0a24.6,24.6,0,0,0,4.39-6.14,24.3,24.3,0,0,0,2.33-7.17,25,25,0,0,0-2-14.7l-.06-.13v-.16h0l.07.29c-.92-1.95-1.91-3.87-3-5.74s-2.2-3.71-3.38-5.51l-.14-.48a1,1,0,0,0,.1.41.77.77,0,0,0,.15.2.73.73,0,0,1-.15-.21.85.85,0,0,1-.11-.42l.14.48a125.33,125.33,0,0,0-9.61-12.74q-2.61-3-5.38-5.91c-1.86-1.91-3.73-3.78-5.7-5.59l.79.33a1.78,1.78,0,0,1-.34-.06l-.2-.08a1.28,1.28,0,0,1-.28-.21l-.36-.85v.06a1.08,1.08,0,0,1,0,.16,1.09,1.09,0,0,0,.29.57,1.18,1.18,0,0,0,.61.36l.13,0h.13l-.81-.32c-.94-.86-1.9-1.71-2.86-2.56s-1.92-1.68-2.9-2.51c-2-1.65-3.94-3.27-6-4.77Z"/><path class="cls-17" d="M89.83,101.68c-2.07-1.6-4-3.27-6-5-1-.85-1.94-1.72-2.89-2.59S79,92.36,78.08,91.47l.81.31h-.14l-.13,0a1.16,1.16,0,0,1-.62-.36,1.13,1.13,0,0,1-.28-.57.71.71,0,0,1,0-.17v-.06l.35.85a1.17,1.17,0,0,0,.27.19l.19.08a1.49,1.49,0,0,0,.33.06l-.79-.33c-2-1.86-3.85-3.81-5.69-5.78s-3.62-4-5.34-6.1a125.9,125.9,0,0,1-9.53-13.11L57.35,66a1,1,0,0,0,.1.41,1.18,1.18,0,0,0,.15.2.73.73,0,0,1-.15-.21.88.88,0,0,1-.11-.42l.14.48c-1.17-1.86-2.28-3.74-3.33-5.68s-2-3.89-2.93-5.89l-.07-.14v-.14h0l.07.29a26.22,26.22,0,0,1-2.11-7.65,25.91,25.91,0,0,1,.24-7.91,25.9,25.9,0,0,1,7.27-13.78l0,0c1.13-1.13,2.2-2.14,3.38-3.11s2.34-1.93,3.57-2.83,2.49-1.73,3.78-2.52c.65-.39,1.31-.77,2-1.14l1-.54,1-.55,0,0,1.14-.55,1.12-.53h0c.69-.31,1.38-.6,2.08-.88l1-.42,1-.37,0,0,1.36-.46h0a54.09,54.09,0,0,1,6.33-1.69,56.38,56.38,0,0,1,6.47-1,59.57,59.57,0,0,1,6.54-.24,56.74,56.74,0,0,1,6.52.53,56.78,56.78,0,0,0-6.52-.41A61.59,61.59,0,0,0,92,9.21a58.29,58.29,0,0,0-6.43,1.08,53.84,53.84,0,0,0-6.27,1.8h0l-1.35.49,0,0L76.9,13c-.34.13-.69.27-1,.42-.68.29-1.36.6-2,.91h0l-2.28,1.14,0,0s.08-.05,0,0l-.06,0-.12.06-.25.13L70.6,16l-1,.56c-.64.37-1.29.76-1.92,1.16-1.26.8-2.49,1.67-3.69,2.56s-2.34,1.85-3.46,2.84-2.23,2-3.22,3.07l0,0a24.72,24.72,0,0,0-6.73,13.31,25.23,25.23,0,0,0,2,14.71l.06.13v.15h0l-.07-.29c.92,2,1.91,3.87,3,5.73s2.19,3.72,3.38,5.52l.14.47a.9.9,0,0,0-.11-.41.71.71,0,0,0-.14-.19.77.77,0,0,1,.15.2.91.91,0,0,1,.11.42L59,65.48A125.55,125.55,0,0,0,68.6,78.23c1.73,2,3.53,4,5.37,5.9s3.74,3.78,5.71,5.59l-.79-.32a1.25,1.25,0,0,1,.33,0l.2.09a1.34,1.34,0,0,1,.29.2l.35.85v0a.71.71,0,0,0,0-.17,1.2,1.2,0,0,0-.28-.57,1.18,1.18,0,0,0-.61-.35l-.14,0h-.12l.8.31c.94.87,1.9,1.71,2.86,2.56S84.48,94,85.46,94.8c2,1.65,3.93,3.27,6,4.78Z"/><path class="cls-7" d="M141.75,73.91c.25.46.49.92.71,1.39a.18.18,0,0,0-.05-.07Q142.09,74.57,141.75,73.91Z"/><path class="cls-18" d="M38.33,214.16H48.7v1.53c0,5.39-1.41,6.48-8.45,6.48s-8.42-1.15-8.42-7,1.13-7,7.13-7c3.46,0,6.46.08,9.07.22l.07,2c-3.53-.26-7.05-.43-10.23-.43-1.31,0-2.57,0-3.74,0v9.7a38.84,38.84,0,0,0,12.3,0V216h-8.1Z"/><path class="cls-18" d="M69.25,208.44l7.27,12.41V222h-2.3l-1.81-3.4H62.89L61.08,222H58.87v-1.11l7.22-12.4Zm-5.37,8.28h7.58l-3.76-7.07h0Z"/><path class="cls-18" d="M88.29,222V208.44h3.64l5.66,8.86h0l5.71-8.86h3.57V222h-2.08v-12.3h0l-5.93,9.16H96.28l-5.86-9.16h0V222Z"/><path class="cls-18" d="M121,222V208.44h14.35v1.82H123.07v3.94h9.18V216h-9.18v4.09h12.38V222Z"/><path class="cls-18" d="M147.36,221.87l-.08-2c3.59.31,6.73.45,9.42.49,1.17,0,2.26,0,3.36,0v-3.75l-8.83-.76c-3-.26-4.09-1.23-4.09-3.68,0-2.88,1.49-3.91,5.78-3.91,3.36,0,5.9.06,8.59.24l.06,2c-3-.28-6.09-.45-8.87-.45-1.15,0-2.24,0-3.28,0v3.71l8.45.74c3.3.28,4.47,1.21,4.47,3.74,0,2.92-1.49,3.91-6.18,3.91C153.34,222.17,150.69,222.07,147.36,221.87Z"/><path class="cls-19" d="M29.44,172.7l-17.71-1.39V165.8c3.91,0,7.46.2,10.76.41,5.34.32,10,.81,14.53,1.38L40.14,159l.11-.31c-10.29-.83-16.42-1.09-22.7-1.09C5.91,157.6.65,161,.65,168.47c0,6.49,3.86,9.84,12.26,10.51l18.7,1.44v5.67c-5.26-.16-9.28-.31-14.22-.62-3.83-.25-7.76-.67-12.58-1.29l-3.23,8.88v0a210.77,210.77,0,0,0,23.59,1.19c12.93,0,17.51-3.76,17.51-10.87C42.68,176.51,38.46,173.42,29.44,172.7Z"/><path class="cls-20" d="M114.49,184.49l2.31-6.18V158.43H106.24v35H138.3l3.26-9Z"/><path class="cls-21" d="M38.33,213.05H48.7v1.54c0,5.38-1.41,6.48-8.45,6.48s-8.42-1.16-8.42-7,1.13-7,7.13-7c3.46,0,6.46.08,9.07.22l.07,2c-3.53-.26-7.05-.44-10.23-.44-1.31,0-2.57,0-3.74,0v9.7a38.07,38.07,0,0,0,12.3,0v-3.8h-8.1Z"/><path class="cls-22" d="M69.25,207.33l7.27,13.42v.1h-2.3l-1.81-3.4H62.89l-1.81,3.4H58.87v-.1l7.22-13.42Zm-5.37,8.29h7.58l-3.76-7.08h0Z"/><path class="cls-23" d="M88.29,220.85V207.33h3.64l5.66,8.86h0l5.71-8.86h3.57v13.52h-2.08V208.54h0l-5.93,9.17H96.28l-5.86-9.17h0v12.31Z"/><path class="cls-24" d="M121,220.85V207.33h14.35v1.83H123.07v3.93h9.18v1.81h-9.18V219h12.38v1.85Z"/><path class="cls-25" d="M147.36,220.77l-.08-2c3.59.32,6.73.46,9.42.5,1.17,0,2.26,0,3.36,0v-3.76l-8.83-.76c-3-.25-4.09-1.23-4.09-3.67,0-2.89,1.49-3.92,5.78-3.92,3.36,0,5.9.06,8.59.24l.06,2c-3-.28-6.09-.46-8.87-.46-1.15,0-2.24,0-3.28,0v3.72l8.45.73c3.3.28,4.47,1.21,4.47,3.74,0,2.92-1.49,3.92-6.18,3.92C153.34,221.07,150.69,221,147.36,220.77Z"/><path class="cls-18" d="M25.17,194.93A211.41,211.41,0,0,1,1.5,193.74l-.57-.07,1.5-1.14a198.2,198.2,0,0,0,22.74,1.1C40,193.63,42,188.46,42,183.41h1.3C43.33,191.37,37.73,194.93,25.17,194.93Zm7.09-8.19-1.3-.67v-5l-18.1-1.4C4.21,178.94,0,175.29,0,168.47H1.3c0,6.18,3.6,9.22,11.66,9.86l19.3,1.49Zm4.68-18.5c-5.19-.66-9.79-1.1-14.49-1.38-3.71-.24-7.22-.37-10.73-.41v-1.3c3.54,0,7.07.17,10.8.41,4.73.29,9.36.73,14.57,1.39Z"/><path class="cls-18" d="M138.08,194.1H105.59V157.78l1.3.65V192.8h31.64Zm-22.8-9.38-1.33.41,2.24-7,1.25.18Z"/><path class="cls-26" d="M17.55,158.25c6.57,0,12.74.31,22.47,1.09l.47-1.3c-9.77-.78-16.33-1.09-22.94-1.09C5.58,157,0,160.61,0,168.47H1.3C1.3,163.71,3.15,158.25,17.55,158.25Z"/><path class="cls-26" d="M29.49,172.05l-17.71-1.39-.1,1.3,17.71,1.39c8.86.71,12.64,3.72,12.64,10.06h1.3C43.33,176.32,39.06,172.82,29.49,172.05Z"/><path class="cls-26" d="M4.89,183.54l-.52-.07L.92,193.68l1.66-1.15,2.66-7.64c4.83.62,8.58,1,12.11,1.23,5.06.31,9.87.47,14.91.62L31,185.44c-5-.15-8.5-.31-13.54-.62C13.81,184.58,9.94,184.19,4.89,183.54Z"/><polygon class="cls-26" points="113.96 185.14 141.34 185.14 141.81 183.84 115.59 183.84 113.96 185.14"/><polygon class="cls-26" points="116.14 178.26 117.44 178.26 117.45 157.78 105.59 157.78 106.9 159.08 116.15 159.08 116.14 178.26"/><path class="cls-27" d="M72.64,157.6c-18.29,0-24.31,4.48-24.31,18.34s6,18.34,24.31,18.34S97,189.74,97,175.94,91,157.6,72.64,157.6Zm12.77,15.63V184.7c-4.27.21-8.34.31-12.77.31s-8.5-.1-12.72-.31V167.13c4.22-.15,8.29-.25,12.72-.25s15,.25,15,.25Z"/><path class="cls-26" d="M72.64,185.66c-4.37,0-9-.1-13.37-.31l.68-1.3c4.31.21,8.35.31,12.69.31,4.12,0,8-.09,12.12-.28V173h1.3v12.33l-.61,0C81.06,185.56,77,185.66,72.64,185.66Z"/><path class="cls-26" d="M97.6,175.94H96.3c0-13.39-5.75-17.69-23.66-17.69S49,162.55,49,175.94h-1.3c0-14.19,6.3-19,25-19S97.6,161.75,97.6,175.94Z"/><path class="cls-18" d="M60.57,184.05l-1.3,1.3V166.5l.63,0c5-.18,8.84-.25,12.74-.25,4.39,0,15,.25,15.07.25l.91,0-2.56,6.94L84.77,173l2-5.23c-2.67-.06-10.51-.23-14.12-.23s-7.36.07-12.07.23Z"/><path class="cls-18" d="M72.64,194.93c-18.66,0-25-4.79-25-19H49c0,13.39,5.75,17.69,23.66,17.69s23.66-4.3,23.66-17.69h1.3C97.6,190.14,91.3,194.93,72.64,194.93Z"/><path class="cls-28" d="M169.09,157.6c-18.29,0-24.31,4.48-24.31,18.34s6,18.34,24.31,18.34,24.31-4.54,24.31-18.34S187.43,157.6,169.09,157.6Zm12.77,15.63V184.7c-4.27.21-8.34.31-12.77.31s-8.5-.1-12.72-.31V167.13c4.22-.15,8.29-.25,12.72-.25s15,.25,15,.25Z"/><path class="cls-26" d="M169.09,185.66c-4.36,0-9-.1-13.37-.31l.68-1.3c4.32.21,8.35.31,12.69.31,4.12,0,8-.09,12.12-.28V173h1.31v12.33l-.62,0C177.51,185.56,173.44,185.66,169.09,185.66Z"/><path class="cls-26" d="M194.05,175.94h-1.3c0-13.39-5.75-17.69-23.66-17.69s-23.66,4.3-23.66,17.69h-1.3c0-14.19,6.3-19,25-19S194.05,161.75,194.05,175.94Z"/><path class="cls-18" d="M157,184.05l-1.3,1.3V166.5l.63,0c5-.18,8.84-.25,12.74-.25,4.39,0,15,.25,15.07.25l.91,0-2.55,6.94-1.3-.45,2-5.23c-2.67-.06-10.51-.23-14.12-.23s-7.36.07-12.07.23Z"/><path class="cls-18" d="M169.09,194.93c-18.66,0-25-4.79-25-19h1.3c0,13.39,5.75,17.69,23.66,17.69s23.66-4.3,23.66-17.69h1.3C194.05,190.14,187.75,194.93,169.09,194.93Z"/></g></g></svg>